<?xml version="1.0" encoding="utf-8"?>
<!-- Generator: Adobe Illustrator 25.3.0, SVG Export Plug-In . SVG Version: 6.00 Build 0)  -->
<svg version="1.1" id="Capa_1" xmlns="http://www.w3.org/2000/svg" xmlns:xlink="http://www.w3.org/1999/xlink" x="0px" y="0px"
	 viewBox="0 0 1366 1051" style="enable-background:new 0 0 1366 1051;" xml:space="preserve">
<style type="text/css">
	.st0{fill:#22160A;}
	.st1{fill:#22160A;stroke:#22160A;stroke-miterlimit:10;}
</style>
<g>
	<g>
		<g>
			<path class="st0" d="M425,849.38h-64.56c0-8.62,3.27-16.52,8.99-22.27V533.34c-5.72-5.75-8.99-13.65-8.99-22.27h80.9
				c5.72,6.47,14.71,10.77,24.52,10.77s17.98-4.31,23.7-10.77h81.72c0,8.62-3.27,16.52-9.81,22.27v293.77
				c6.54,5.74,9.81,13.65,9.81,22.27h-66.19c0-8.62,3.27-16.52,8.99-22.27v-275.1h-16.34c-7.35,0-9.81,2.87-9.81,8.62v225.54
				c6.54,5.74,9.81,13.65,9.81,22.27h-65.37c0-8.62,3.27-16.52,8.99-22.27V560.64c0-6.46-0.82-8.62-8.99-8.62h-16.34v275.1
				C421.74,832.86,425,840.76,425,849.38z"/>
			<path class="st0" d="M720,849.38H585.17c0-8.62,3.27-16.52,8.99-22.27V533.34c-5.72-5.75-8.99-13.65-8.99-22.27H720
				c0,8.62-3.27,16.52-9.81,22.27v69.67l-44.94,24.42v-75.42h-23.7v150.12h31.87c5.72-6.46,15.53-10.05,25.33-10.05v59.61
				c-9.81,0-19.61-3.59-25.33-9.34h-31.87v65.36h23.7v-51l44.94,23.7v46.69C716.73,832.86,720,840.76,720,849.38z"/>
			<path class="st0" d="M878.52,849.38h-64.55c0-8.62,2.45-16.52,8.99-22.27V660.48l-33.5-48.84v215.48
				c5.72,5.74,8.99,13.65,8.99,22.27h-64.56c0-8.62,3.27-16.52,8.99-22.27V533.34c-5.72-5.75-8.99-13.65-8.99-22.27h64.56
				c0,8.62-3.27,16.52-8.99,22.27l33.5,51v-51c-6.54-5.75-8.99-13.65-8.99-22.27h64.55c0,8.62-3.27,16.52-9.81,22.27v293.77
				C875.25,832.86,878.52,840.76,878.52,849.38z"/>
			<path class="st0" d="M1031.32,849.38h-83.35c-36.77,0-46.58-7.9-46.58-40.94V533.34c-5.72-5.03-8.99-13.65-8.99-22.27h65.37
				c0,8.62-3.27,17.24-9.81,22.27v266.47c0,5.75,3.27,7.9,9.81,7.9h17.98V533.34c-6.54-5.03-8.99-13.65-8.99-22.27h64.56
				c0,8.62-3.27,17.24-9.81,22.27v293.77C1028.05,832.86,1031.32,840.76,1031.32,849.38z"/>
		</g>
		<g>
			<g>
				<path class="st1" d="M412.07,474.41c-1.17-0.89-1.75-1.32-2.92-2.2c-0.73-1.4-1.09-2.1-1.81-3.49c-0.67-1.84-1-2.75-1.66-4.57
					c-0.27-1.17-0.41-1.76-0.68-2.92c-0.46-1.08-0.69-1.63-1.16-2.7c-0.27-1.16-0.41-1.74-0.68-2.9c-0.46-1-0.69-1.5-1.15-2.49
					c-0.27-1-0.4-1.51-0.67-2.51c-0.86-2.05-1.28-3.07-2.14-5.09c-0.27-0.92-0.4-1.38-0.67-2.29c-0.85-2.09-1.28-3.12-2.13-5.18
					c-0.46-0.88-0.68-1.32-1.14-2.2c-0.6-2.22-0.9-3.33-1.49-5.53c-0.39-0.87-0.59-1.31-0.98-2.17c-0.71-0.96-1.06-1.44-1.77-2.39
					c-0.83-0.78-1.25-1.17-2.08-1.94c-1.14,0.2-1.71,0.3-2.85,0.5c-2.15,0.24-3.23,0.37-5.38,0.62c-0.95,0.24-1.42,0.36-2.37,0.6
					c-0.82,0.97-1.23,1.45-2.04,2.4c-0.18,1.25-0.27,1.88-0.46,3.12c0.13,1.06,0.2,1.59,0.33,2.65c0.01,1.01,0.01,1.52,0.01,2.54
					c0.07,1.14,0.1,1.71,0.17,2.85c0,12.38,0,18.57,0,30.94c-0.32,0.96-0.47,1.43-0.79,2.39c-0.77,0.9-1.15,1.34-1.92,2.22
					c-1.09,0.22-1.64,0.33-2.73,0.55c-1.03-0.31-1.54-0.47-2.57-0.78c-0.77-0.71-1.16-1.06-1.93-1.76c-0.19-1.04-0.29-1.56-0.48-2.6
					c-0.07-0.84-0.1-1.27-0.16-2.11c0.12-2.35,0.19-3.53,0.31-5.88c-0.19-1.88-0.29-2.82-0.48-4.69c-0.07-1.82-0.1-2.73-0.16-4.54
					c0.19-2.49,0.28-3.74,0.47-6.24c0-1.24,0-1.86,0-3.1c0.06-1.25,0.09-1.87,0.15-3.12c-0.2-3.56-0.29-5.33-0.49-8.88
					c0.19-1.21,0.28-1.81,0.47-3.02c0-1.04,0-1.56,0-2.61c-0.13-1.08-0.19-1.63-0.32-2.71c0.19-1.99,0.28-2.99,0.46-4.99
					c-0.07-5.14-0.11-7.71-0.18-12.84c-0.19-0.99-0.28-1.49-0.47-2.48c0-2.08,0-3.12-0.01-5.21c0.19-1.1,0.28-1.65,0.46-2.75
					c0-1.11,0-1.66,0-2.77c-0.25-0.96-0.37-1.44-0.62-2.4c0.06-0.93,0.09-1.4,0.15-2.33c0.18-1.17,0.28-1.76,0.46-2.93
					c0-1.7,0-2.54-0.01-4.24c-0.19-1.37-0.28-2.05-0.47-3.41c0.18-1.11,0.28-1.67,0.46-2.79c0.06-1,0.09-1.5,0.15-2.51
					c-0.19-1.95-0.28-2.92-0.47-4.86c0.18-1.19,0.27-1.78,0.46-2.97c1.11-1.33,1.66-2,2.76-3.35c1.66-0.8,2.49-1.19,4.15-1.98
					c1.11-0.75,1.66-1.12,2.77-1.87c1.17-0.44,1.76-0.66,2.93-1.09c1.05-0.18,1.58-0.26,2.63-0.43c0.93-0.67,1.39-1,2.32-1.66
					c1.24-0.31,1.86-0.46,3.1-0.76c1.61-0.59,2.42-0.89,4.03-1.47c1.37-0.34,2.05-0.51,3.42-0.84c0.81-0.47,1.21-0.7,2.02-1.16
					c1.13,0.06,1.69,0.09,2.82,0.17c0.81-0.02,1.22-0.03,2.03-0.05c1,0.13,1.51,0.2,2.51,0.34c1.7,0.47,2.55,0.72,4.25,1.23
					c0.76,0.48,1.14,0.72,1.91,1.2c0.7,0.73,1.05,1.1,1.76,1.85c0.7,0.59,1.05,0.89,1.76,1.49c0.33,0.73,0.49,1.09,0.81,1.83
					c0.71,0.91,1.06,1.37,1.77,2.29c0.6,2.34,0.9,3.51,1.51,5.87c0.23,2.39,0.34,3.59,0.56,5.99c0.34,1.44,0.51,2.17,0.85,3.62
					c-0.1,1.88-0.15,2.82-0.25,4.69c-0.17,1.43-0.26,2.15-0.43,3.57c-0.11,1.18-0.16,1.77-0.27,2.96c-0.04,1.32-0.07,1.98-0.11,3.29
					c-0.17,1.42-0.25,2.14-0.42,3.56c-0.66,2.38-1,3.56-1.66,5.92c-0.49,1.25-0.74,1.87-1.23,3.12c-0.62,1.19-0.93,1.79-1.55,2.98
					c-0.43,1.07-0.64,1.61-1.07,2.67c-0.75,0.98-1.12,1.46-1.87,2.43c-0.82,0.83-1.22,1.25-2.04,2.08c-0.88,0.84-1.32,1.25-2.2,2.08
					c-0.81,0.97-1.22,1.45-2.04,2.41c-0.43,1.26-0.64,1.89-1.07,3.14c0.21,1.29,0.31,1.93,0.52,3.22c1.45,4.33,2.18,6.52,3.64,10.94
					c0.46,0.91,0.69,1.36,1.15,2.28c0.27,1.09,0.4,1.63,0.67,2.72c0.33,0.93,0.5,1.4,0.83,2.34c0.46,1.07,0.69,1.61,1.15,2.7
					c0.27,0.95,0.4,1.43,0.67,2.38c0.4,1.32,0.6,1.98,1,3.3c1.13,2.77,1.69,4.17,2.82,6.99c0.41,1.49,0.61,2.24,1.02,3.75
					c0.86,2.09,1.3,3.14,2.16,5.25c0.4,1.21,0.6,1.82,1.01,3.03c0.08,1.07,0.12,1.61,0.2,2.68c-0.69,1.09-1.04,1.63-1.73,2.71
					c-0.83,0.32-1.25,0.48-2.08,0.79C414.19,474.72,413.48,474.62,412.07,474.41z M389.34,413.7c0.94-0.48,1.42-0.72,2.36-1.2
					c0.88-0.26,1.33-0.38,2.21-0.64c1.01-0.5,1.51-0.74,2.52-1.24c1.01-0.86,1.51-1.29,2.51-2.16c0.88-0.7,1.32-1.05,2.2-1.75
					c0.75-0.82,1.13-1.23,1.88-2.06c1.36-3.17,2.03-4.77,3.39-7.99c0.36-1.35,0.54-2.03,0.91-3.39c-0.02-1.27-0.02-1.9-0.04-3.16
					c0.24-1.11,0.36-1.66,0.6-2.77c0.04-1.81,0.06-2.71,0.1-4.52c-0.25-4.73-0.38-7.09-0.63-11.8c-0.33-1.02-0.49-1.53-0.82-2.55
					c-1.73-2.44-2.6-3.64-4.33-6.01c-0.89-0.58-1.33-0.87-2.21-1.44c-0.76-0.25-1.13-0.37-1.89-0.61c-0.88-0.05-1.32-0.07-2.2-0.12
					c-2.44,0.31-3.66,0.47-6.09,0.81c-2.68,0.79-4.01,1.2-6.68,2.02c-1.05,0.55-1.58,0.82-2.63,1.37c-0.87,0.68-1.3,1.02-2.16,1.7
					c-0.62,0.85-0.93,1.28-1.54,2.13c-0.43,1.46-0.64,2.18-1.07,3.63c0.07,0.85,0.1,1.28,0.17,2.14c0.07,2.21,0.11,3.31,0.18,5.52
					c-0.12,1.4-0.18,2.09-0.29,3.49c-0.05,1.57-0.08,2.36-0.14,3.93c0.13,1.11,0.2,1.66,0.33,2.77c-0.11,2.74-0.17,4.11-0.28,6.85
					c0.07,1.53,0.11,2.3,0.18,3.84c-0.06,1.3-0.08,1.95-0.14,3.25c0.13,0.84,0.19,1.27,0.32,2.11c-0.06,1.1-0.09,1.65-0.14,2.74
					c0.07,1,0.1,1.5,0.17,2.49c0.32,1.01,0.48,1.51,0.8,2.53c0.76,0.71,1.14,1.07,1.9,1.79c1.26-0.07,1.89-0.1,3.15-0.16
					C384.88,414.62,386.37,414.31,389.34,413.7z"/>
				<path class="st1" d="M476.22,473.58c-1.99,0.02-2.99,0.03-4.99,0.06c-1.03-0.07-1.55-0.11-2.58-0.18
					c-1.02,0.27-1.54,0.4-2.56,0.67c-0.97-0.16-1.45-0.24-2.42-0.4c-2.06,0.19-3.08,0.29-5.14,0.48c-1.03-0.24-1.55-0.36-2.58-0.6
					c-0.9,0.18-1.35,0.27-2.25,0.44c-0.97-0.15-1.45-0.23-2.42-0.38c-2.05,0.36-3.08,0.53-5.13,0.88c-2-0.06-2.99-0.09-4.99-0.14
					c-1.04-0.63-1.56-0.95-2.6-1.57c-0.6-1.28-0.9-1.91-1.5-3.18c-0.03-9.13-0.04-13.7-0.07-22.84c-0.26-3.91-0.39-5.87-0.65-9.77
					c0.04-1.37,0.06-2.05,0.1-3.42c0.11-1.14,0.16-1.7,0.27-2.84c-0.15-1.43-0.23-2.14-0.38-3.56c0.11-1.06,0.17-1.59,0.28-2.65
					c0.04-1.29,0.06-1.93,0.11-3.22c-0.22-1.42-0.32-2.13-0.54-3.54c-0.09-1.43-0.13-2.15-0.22-3.58c0.03-2.25,0.04-3.38,0.06-5.63
					c0.04-1.29,0.06-1.94,0.1-3.23c-0.09-1.43-0.13-2.14-0.22-3.57c0.17-1.48,0.25-2.22,0.42-3.69c-0.15-1.34-0.23-2.01-0.38-3.34
					c0.07-3.63,0.1-5.45,0.16-9.08c-0.09-1.59-0.14-2.38-0.23-3.97c-0.02-1.12-0.03-1.68-0.05-2.81c-0.11-2.47-0.16-3.7-0.26-6.17
					c0.04-1.46,0.06-2.19,0.1-3.64c-0.16-1.81-0.24-2.71-0.4-4.52c0.14-3.25,0.2-4.88,0.34-8.14c-0.21-0.99-0.31-1.48-0.52-2.47
					c-0.02-1.28-0.03-1.92-0.05-3.2c0.05-0.98,0.07-1.47,0.12-2.45c-0.09-1.42-0.13-2.13-0.22-3.55c-0.09-1.34-0.13-2.01-0.22-3.35
					c-0.14-1-0.22-1.5-0.36-2.5c0.42-1.59,0.63-2.38,1.04-3.97c0.94-0.88,1.41-1.32,2.35-2.21c1.08-0.04,1.62-0.06,2.7-0.09
					c0.88-0.62,1.32-0.93,2.2-1.55c1.02-0.01,1.53-0.01,2.55-0.01c3.04-1.32,4.55-1.97,7.6-3.27c5.15-1.38,7.73-2.04,12.89-3.31
					c3.06-0.99,4.59-1.48,7.66-2.45c1.02-0.21,1.54-0.31,2.56-0.51c0.91,0.44,1.36,0.67,2.27,1.12c0.66,0.79,0.99,1.18,1.64,1.97
					c0.09,1.3,0.13,1.95,0.22,3.24c-0.62,1.4-0.92,2.1-1.54,3.49c-1.65,1.22-2.47,1.83-4.12,3.05c-1.47,0.21-2.21,0.32-3.68,0.54
					c-1.02,0.1-1.54,0.15-2.56,0.26c-1.15,0.4-1.72,0.6-2.87,1c-0.95,0.43-1.43,0.65-2.38,1.09c-1.09-0.04-1.64-0.06-2.73-0.09
					c-2.16,0.7-3.24,1.05-5.41,1.76c-2.03,0.92-3.04,1.39-5.07,2.31c-1.07,1.06-1.6,1.59-2.66,2.65c-0.54,2.06-0.81,3.09-1.35,5.14
					c0.02,4.69,0.03,7.04,0.05,11.73c0.18,2.67,0.26,4.01,0.44,6.69c-0.11,1.18-0.16,1.77-0.27,2.95c0.2,3.91,0.3,5.86,0.49,9.77
					c-0.1,1.42-0.15,2.13-0.26,3.55c0.15,1.12,0.22,1.68,0.37,2.81c-0.04,1.32-0.06,1.99-0.1,3.31c0.48,1.55,0.71,2.33,1.19,3.89
					c1.09,0.29,1.64,0.44,2.73,0.74c0.89-0.08,1.34-0.12,2.24-0.19c1.02-0.35,1.53-0.52,2.55-0.87c1.6-0.2,2.4-0.3,4-0.49
					c1.92-0.42,2.88-0.62,4.79-1.04c1.6-0.1,2.4-0.15,4.01-0.25c1.86-0.22,2.79-0.33,4.65-0.55c1.02-0.34,1.53-0.51,2.56-0.85
					c1.1,0.52,1.65,0.78,2.76,1.31c0.48,1.41,0.72,2.12,1.2,3.54c-0.48,1.82-0.72,2.73-1.2,4.55c-0.95,0.92-1.42,1.38-2.37,2.3
					c-1.92,0.53-2.88,0.8-4.8,1.33c-0.97-0.21-1.45-0.31-2.42-0.51c-2.18,0.4-3.27,0.6-5.44,1.01c-0.9-0.04-1.35-0.05-2.25-0.09
					c-1.09,0.33-1.63,0.5-2.71,0.83c-1.98,0.39-2.97,0.58-4.95,0.97c-1.09,0-1.63,0-2.72,0.01c-0.94,1.06-1.41,1.59-2.35,2.64
					c-0.49,1.23-0.74,1.84-1.23,3.07c0.15,1.21,0.22,1.82,0.37,3.03c-0.04,1.48-0.06,2.23-0.09,3.71c0.15,1.46,0.23,2.19,0.39,3.65
					c0.03,1.4,0.04,2.09,0.06,3.49c-0.11,1.08-0.16,1.62-0.27,2.7c0.15,1.46,0.23,2.19,0.39,3.66c-0.04,8.39-0.06,12.58-0.11,20.95
					c0.09,1.47,0.14,2.21,0.23,3.68c0.55,1.86,0.82,2.79,1.37,4.66c1.17,0.61,1.75,0.92,2.92,1.54c2.05-0.16,3.08-0.24,5.14-0.4
					c1.1,0.21,1.65,0.32,2.74,0.53c1.09-0.21,1.63-0.31,2.72-0.52c2.19-0.08,3.28-0.11,5.46-0.19c1.1,0.22,1.65,0.33,2.75,0.55
					c0.96-0.2,1.44-0.31,2.4-0.51c1.03,0.05,1.55,0.08,2.58,0.13c1.03-0.12,1.54-0.18,2.57-0.3c1.1,0.49,1.66,0.73,2.76,1.22
					c0.6,1.3,0.91,1.95,1.51,3.25c-0.04,1.32-0.06,1.97-0.1,3.29c-0.43,1.32-0.64,1.99-1.06,3.3c-1.02,0.71-1.53,1.07-2.54,1.77
					C477.78,474.08,477.26,473.91,476.22,473.58z"/>
				<path class="st1" d="M516,475.01c-1.03,0.1-1.54,0.15-2.57,0.25c-1.17-0.45-1.75-0.68-2.92-1.13c-0.9-0.08-1.35-0.13-2.26-0.21
					c-1.1-0.36-1.65-0.53-2.75-0.89c-1.17-0.62-1.75-0.94-2.92-1.55c-1.76-1.34-2.65-2-4.41-3.32c-0.92-1.06-1.38-1.59-2.3-2.65
					c-0.54-1.42-0.81-2.13-1.36-3.55c0.22-1.8,0.34-2.69,0.56-4.49c1.01-1.02,1.52-1.54,2.53-2.57c0.97,0.32,1.46,0.49,2.43,0.81
					c0.92,0.78,1.37,1.17,2.29,1.95c2.86,1.53,4.29,2.31,7.16,3.88c1.1,0.25,1.65,0.37,2.75,0.62c0.97,0.07,1.45,0.1,2.42,0.17
					c1.68,0.33,2.52,0.49,4.2,0.83c1.47-0.4,2.21-0.61,3.69-1.01c1.92-0.89,2.88-1.33,4.79-2.22c1.71-1.73,2.56-2.6,4.27-4.35
					c0.69-1.15,1.03-1.73,1.72-2.89c0.62-1.15,0.94-1.73,1.56-2.89c0.36-1.24,0.55-1.87,0.91-3.11c0.36-1.63,0.54-2.44,0.9-4.07
					c0.23-1.43,0.35-2.15,0.58-3.59c0.17-1.34,0.26-2.01,0.43-3.35c-0.04-2.19-0.06-3.28-0.09-5.47c0.03-2.28,0.04-3.43,0.06-5.71
					c-0.1-1.8-0.14-2.7-0.24-4.51c-0.34-1.02-0.51-1.53-0.85-2.55c-0.42-1.68-0.62-2.52-1.04-4.2c-0.41-1.11-0.61-1.66-1.02-2.76
					c-1.27-2.17-1.9-3.25-3.16-5.41c-2.31-2.91-3.47-4.35-5.78-7.2c-0.92-0.65-1.38-0.98-2.29-1.63c-0.86-0.84-1.28-1.26-2.14-2.1
					c-3.6-2.49-5.4-3.71-9-6.1c-1.64-1.54-2.47-2.3-4.11-3.82c-0.98-0.51-1.47-0.76-2.44-1.26c-0.67-1.28-1-1.91-1.67-3.18
					c-1.58-1.77-2.37-2.65-3.96-4.4c-1.48-3.03-2.22-4.54-3.69-7.53c-0.83-2.74-1.24-4.11-2.06-6.84c-0.31-2.64-0.46-3.96-0.77-6.6
					c-0.17-2.03-0.25-3.05-0.42-5.08c0.19-3.55,0.29-5.32,0.48-8.88c1.01-4.45,1.52-6.69,2.53-11.18c0.49-1.2,0.74-1.8,1.23-3.01
					c0.76-0.91,1.14-1.36,1.9-2.27c0.81-1.37,1.22-2.06,2.03-3.44c0.89-0.85,1.34-1.28,2.23-2.13c0.62-1.16,0.94-1.74,1.56-2.9
					c0.95-0.87,1.43-1.31,2.39-2.18c1.53-1.1,2.3-1.66,3.84-2.76c1.42-0.34,2.13-0.5,3.55-0.83c1.55-0.54,2.32-0.82,3.87-1.35
					c1.61-0.46,2.42-0.69,4.04-1.14c1.23-0.09,1.85-0.13,3.08-0.21c2.09,0.3,3.13,0.46,5.22,0.78c0.92,0.38,1.38,0.57,2.29,0.95
					c2.04,1.3,3.06,1.95,5.1,3.28c0.55,1.42,0.82,2.14,1.36,3.57c-0.23,1.96-0.34,2.94-0.57,4.89c-1.21,1.56-1.82,2.34-3.02,3.89
					c-1.37-0.23-2.05-0.34-3.42-0.56c-0.79-0.71-1.19-1.06-1.98-1.76c-1.11-0.54-1.67-0.81-2.79-1.35c-1.1,0.22-1.65,0.33-2.75,0.55
					c-1.04-0.26-1.57-0.39-2.61-0.64c-1.62,0.15-2.43,0.22-4.05,0.38c-1.48,0.69-2.22,1.03-3.7,1.72c-1.72,1.48-2.58,2.23-4.31,3.71
					c-0.82,1.1-1.23,1.65-2.05,2.75c-0.63,1.06-0.94,1.59-1.57,2.64c-0.49,1.48-0.73,2.22-1.22,3.7c-0.56,1.13-0.84,1.69-1.4,2.82
					c-0.16,1.68-0.24,2.52-0.41,4.2c0.17,5.63,0.25,8.45,0.42,14.09c0.54,1.18,0.81,1.77,1.35,2.96c0.35,1.31,0.52,1.97,0.87,3.29
					c0.66,0.99,1,1.48,1.66,2.47c0.6,1.19,0.91,1.78,1.51,2.98c2.69,2.43,4.04,3.65,6.74,6.15c3.6,2.36,5.4,3.57,9.01,6.02
					c3.48,2.94,5.22,4.43,8.71,7.47c2.98,3.66,4.47,5.51,7.44,9.25c0.61,1.47,0.91,2.21,1.52,3.69c0.6,1.29,0.91,1.93,1.51,3.22
					c0.54,1.2,0.81,1.8,1.35,3.01c0.76,2.92,1.14,4.38,1.9,7.31c0.02,1.35,0.03,2.02,0.06,3.37c0.28,1.62,0.43,2.43,0.71,4.04
					c0.1,2.4,0.16,3.6,0.26,6.01c-0.09,2.32-0.14,3.48-0.23,5.79c-0.17,1.64-0.25,2.47-0.42,4.11c-0.17,1.36-0.26,2.03-0.43,3.39
					c-0.17,1.45-0.25,2.17-0.42,3.62c-0.3,1.45-0.45,2.18-0.75,3.63c-0.43,1.45-0.64,2.18-1.07,3.63c-0.3,1.26-0.45,1.89-0.75,3.14
					c-0.62,1.55-0.93,2.32-1.55,3.87c-0.82,0.98-1.23,1.46-2.06,2.43c-0.56,1.16-0.84,1.74-1.4,2.89c-0.75,1.06-1.13,1.59-1.89,2.65
					c-1.64,1.83-2.47,2.74-4.11,4.56c-0.96,0.48-1.44,0.72-2.39,1.2c-2.05,0.77-3.07,1.16-5.12,1.92c-2.63,0.39-3.95,0.59-6.58,0.97
					C518.23,475.41,517.49,475.28,516,475.01z"/>
				<path class="st1" d="M585.82,472.39c-1.23-0.39-1.84-0.59-3.07-0.97c-0.6-1.19-0.89-1.78-1.49-2.97
					c-0.29-2.77-0.44-4.16-0.74-6.93c0.04-1.89,0.06-2.83,0.1-4.71c-0.15-1.48-0.22-2.23-0.37-3.71c0.09-3.18,0.13-4.76,0.21-7.94
					c-0.12-3.97-0.18-5.95-0.3-9.91c0.05-5.56,0.08-8.33,0.13-13.89c-0.21-1.38-0.32-2.07-0.53-3.45c0.11-1.49,0.16-2.24,0.27-3.73
					c-0.09-1.58-0.13-2.38-0.22-3.96c0.04-1.69,0.06-2.53,0.1-4.22c-0.02-1.39-0.03-2.08-0.05-3.47c0.04-1.89,0.06-2.83,0.1-4.72
					c-0.15-1.68-0.23-2.52-0.38-4.19c-0.04-2.78-0.06-4.16-0.09-6.94c0.1-1.89,0.16-2.84,0.26-4.73c-0.02-1.49-0.03-2.23-0.05-3.72
					c-0.15-1.67-0.23-2.51-0.38-4.18c-0.3-21.91-0.45-32.87-0.75-54.78c-0.61-1.61-0.92-2.41-1.53-4.02
					c-0.99-0.66-1.49-0.99-2.48-1.64c-2.09,0.39-3.13,0.59-5.21,1c-0.98-0.05-1.47-0.08-2.45-0.13c-1.17,0.37-1.76,0.56-2.93,0.94
					c-1.96-0.09-2.94-0.13-4.9-0.21c-1.12-0.5-1.67-0.75-2.79-1.25c-0.49-1.77-0.73-2.66-1.21-4.42c0.43-1.53,0.65-2.3,1.08-3.84
					c1.09-1.16,1.64-1.74,2.73-2.91c1.5-0.16,2.25-0.24,3.75-0.39c1.5-0.54,2.24-0.81,3.74-1.35c1.11,0.02,1.67,0.02,2.78,0.05
					c2.28-0.56,3.42-0.84,5.71-1.38c0.98,0.15,1.48,0.22,2.46,0.37c0.98-0.24,1.47-0.37,2.45-0.61c1.05-0.05,1.57-0.08,2.62-0.13
					c1.04-0.45,1.56-0.67,2.6-1.11c1.05,0.05,1.57,0.08,2.62,0.14c1.04-0.54,1.56-0.81,2.6-1.35c0.99,0.17,1.48,0.26,2.47,0.43
					c2.23-0.19,3.34-0.28,5.57-0.45c2.16-0.67,3.24-1,5.4-1.65c2.04,0.27,3.06,0.41,5.1,0.69c1.12,0.49,1.68,0.73,2.8,1.22
					c0.42,2.19,0.62,3.29,1.04,5.48c-0.44,1.98-0.66,2.96-1.1,4.94c-1.5,0.86-2.25,1.29-3.75,2.15c-2.75,0.08-4.13,0.12-6.88,0.23
					c-0.98,0.21-1.47,0.31-2.45,0.53c-0.98-0.09-1.48-0.13-2.46-0.22c-1.17,0.44-1.76,0.66-2.93,1.1c-0.91,0.91-1.36,1.37-2.27,2.28
					c-0.57,1.67-0.85,2.51-1.42,4.18c-0.05,1.31-0.07,1.96-0.12,3.27c0.22,1.58,0.32,2.37,0.54,3.95c-0.11,1.81-0.16,2.72-0.27,4.53
					c0.17,3.39,0.26,5.08,0.43,8.46c-0.12,1.11-0.18,1.67-0.29,2.79c0.11,3.59,0.17,5.39,0.28,8.98c-0.18,1.52-0.26,2.28-0.44,3.79
					c0.3,2.97,0.45,4.46,0.75,7.44c-0.18,1.52-0.26,2.28-0.44,3.79c-0.04,1.6-0.07,2.41-0.11,4.01c0.15,1.59,0.23,2.38,0.38,3.97
					c0.02,1.8,0.03,2.7,0.06,4.5c-0.04,1.61-0.07,2.41-0.11,4.01c0.15,1.79,0.23,2.68,0.38,4.47c-0.11,1.51-0.17,2.26-0.28,3.77
					c0.09,2.09,0.14,3.14,0.23,5.24c0.07,5.5,0.1,8.25,0.17,13.75c0.15,1.69,0.23,2.54,0.38,4.24c-0.17,1.71-0.26,2.56-0.43,4.27
					c0.08,1.5,0.13,2.25,0.21,3.74c-0.03,3.1-0.04,4.65-0.06,7.75c0.16,2.49,0.24,3.74,0.4,6.24c-0.04,2.3-0.05,3.45-0.09,5.76
					c0.09,1.8,0.13,2.7,0.22,4.5c-0.05,1.4-0.07,2.1-0.12,3.5c0.08,1.3,0.12,1.95,0.2,3.24c0.02,1.5,0.03,2.25,0.05,3.75
					c-0.11,1.5-0.17,2.25-0.28,3.75c0.22,1.8,0.32,2.7,0.54,4.49c0.08,1.4,0.12,2.1,0.2,3.5c-0.3,1.5-0.45,2.26-0.76,3.76
					c-1.09,0.71-1.63,1.06-2.72,1.76C587.28,472.68,586.79,472.59,585.82,472.39z"/>
				<path class="st1" d="M610.11,470.24c-0.28-1.62-0.41-2.43-0.69-4.05c1.08-7.7,1.62-11.56,2.7-19.29
					c0.37-1.43,0.56-2.14,0.93-3.57c0.11-1.63,0.17-2.44,0.28-4.06c0.31-1.43,0.46-2.14,0.77-3.57c1.19-9.88,1.79-14.83,2.99-24.74
					c0.86-4.61,1.3-6.92,2.16-11.54c0.18-1.54,0.27-2.3,0.45-3.84c0.91-6.77,1.37-10.16,2.28-16.94c0.12-1.43,0.18-2.15,0.29-3.59
					c0.62-3.09,0.93-4.64,1.56-7.74c0.12-1.44,0.18-2.15,0.29-3.59c1.3-8.25,1.95-12.38,3.25-20.65c0.05-1.44,0.08-2.15,0.13-3.59
					c0.44-1.67,0.67-2.5,1.11-4.17c0.3-3.3,0.45-4.95,0.75-8.24c0.56-3.32,0.85-4.98,1.41-8.3c0.32-1.25,0.48-1.88,0.79-3.13
					c0.18-1.65,0.28-2.48,0.46-4.14c0.12-1.65,0.18-2.47,0.3-4.12c0.63-3.33,0.95-4.99,1.58-8.33c0.65-1.59,0.97-2.38,1.62-3.97
					c1.18-1.01,1.76-1.52,2.94-2.53c1.05-0.28,1.58-0.42,2.63-0.7c0.99,0.24,1.48,0.36,2.47,0.6c1.06,0.65,1.59,0.98,2.64,1.63
					c0.73,1.4,1.1,2.1,1.83,3.5c0.41,1.73,0.61,2.59,1.01,4.32c0.21,1.85,0.31,2.77,0.52,4.62c0.88,4.7,1.32,7.05,2.2,11.76
					c0.35,3.18,0.52,4.78,0.86,7.96c1.21,5.94,1.82,8.91,3.03,14.86c0.61,5.04,0.92,7.57,1.53,12.61c0.4,1.43,0.6,2.15,1,3.59
					c0.14,1.86,0.21,2.79,0.35,4.65c1.14,6.17,1.71,9.26,2.85,15.44c0.14,1.65,0.21,2.48,0.34,4.13c1.07,6.5,1.61,9.75,2.67,16.25
					c0.2,1.86,0.3,2.79,0.51,4.65c0.33,1.34,0.5,2.01,0.83,3.35c0.07,1.66,0.11,2.48,0.18,4.14c0.99,4.86,1.49,7.29,2.48,12.15
					c0.27,3.11,0.41,4.66,0.68,7.77c0.4,1.96,0.59,2.95,0.99,4.91c0.07,1.24,0.1,1.87,0.17,3.11c1.19,6.42,1.78,9.63,2.96,16.06
					c0.66,5.08,0.99,7.62,1.65,12.7c-0.32,1.66-0.48,2.49-0.79,4.15c-0.84,0.62-1.25,0.93-2.09,1.56c-1.16,0-1.74,0-2.9,0
					c-1.23-1.03-1.84-1.55-3.07-2.58c-0.84-1.35-1.26-2.02-2.11-3.36c-0.34-3.31-0.5-4.97-0.84-8.28c-0.27-1.65-0.4-2.48-0.66-4.13
					c-0.39-1.45-0.59-2.17-0.99-3.62c-0.4-3.62-0.61-5.43-1.01-9.05c-0.33-1.65-0.5-2.48-0.83-4.13c-0.2-1.76-0.3-2.64-0.51-4.39
					c-0.53-2.99-0.8-4.49-1.33-7.48c-0.79-1.85-1.18-2.77-1.97-4.62c-1.04-0.81-1.56-1.21-2.6-2.02c-2.98,0.05-4.47,0.08-7.46,0.15
					c-1.56-0.28-2.34-0.42-3.9-0.69c-1.36,0.03-2.04,0.05-3.4,0.08c-0.97,0.23-1.46,0.34-2.43,0.57c-2.2,0.06-3.31,0.08-5.51,0.15
					c-1.16,0.85-1.74,1.28-2.9,2.13c-0.63,1.86-0.95,2.79-1.58,4.64c-1.94,14.97-2.91,22.44-4.83,37.34
					c-0.38,1.33-0.56,1.99-0.94,3.32c-0.76,1.53-1.14,2.3-1.9,3.83c-1.02,1.12-1.53,1.69-2.55,2.81c-1.29,0.01-1.93,0.01-3.22,0.01
					C611.58,471.9,611.09,471.35,610.11,470.24z M645.94,404.14c2.01-0.05,3.02-0.08,5.03-0.12c0.84-0.54,1.26-0.8,2.1-1.34
					c0.19-1.66,0.28-2.49,0.46-4.14c-0.54-3.4-0.81-5.09-1.35-8.49c-0.14-1.75-0.21-2.63-0.35-4.38c-0.27-1.64-0.4-2.47-0.67-4.11
					c-0.14-1.23-0.21-1.85-0.34-3.08c-0.4-1.43-0.6-2.15-1-3.58c-0.14-1.85-0.21-2.78-0.35-4.63c-0.27-1.54-0.4-2.31-0.67-3.85
					c-0.46-1.43-0.7-2.14-1.16-3.56c-0.28-3.29-0.42-4.93-0.7-8.22c-0.47-2.76-0.71-4.15-1.19-6.91c-0.21-2.36-0.32-3.54-0.53-5.9
					c-0.68-4.5-1.03-6.75-1.71-11.24c-0.28-3.38-0.43-5.07-0.71-8.46c-0.61-3.26-0.92-4.89-1.53-8.15c-0.2-0.3-0.3-0.44-0.5-0.74
					c-0.44,3.32-0.66,4.98-1.09,8.3c-0.61,7.13-0.91,10.7-1.51,17.82c-0.32,1.15-0.48,1.72-0.8,2.87
					c-0.62,5.28-0.92,7.91-1.54,13.18c-0.05,1.54-0.08,2.31-0.13,3.86c-0.31,1.66-0.47,2.49-0.78,4.15
					c-0.25,1.45-0.38,2.17-0.63,3.62c-0.56,3-0.85,4.5-1.41,7.5c-0.05,1.95-0.07,2.93-0.12,4.88c-0.25,1.55-0.37,2.32-0.62,3.87
					c-0.63,2.9-0.94,4.34-1.57,7.24c-0.05,1.95-0.07,2.92-0.12,4.87c-0.19,1.34-0.28,2.01-0.46,3.34c0.15,1.84,0.22,2.76,0.37,4.6
					c0.91,0.58,1.37,0.87,2.28,1.46c1.1-0.04,1.66-0.05,2.76-0.09c0.97-0.13,1.46-0.2,2.43-0.33c2.08,0.14,3.12,0.22,5.2,0.36
					C644.19,404.49,644.78,404.38,645.94,404.14z"/>
				<path class="st1" d="M707.9,474.41c-1.03-0.1-1.55-0.16-2.58-0.26c-1.8-1.04-2.7-1.56-4.51-2.6c-0.97-0.83-1.45-1.25-2.42-2.08
					c-0.64-1.04-0.97-1.56-1.61-2.6c-0.71-1.35-1.07-2.03-1.78-3.38c-0.65-1.14-0.97-1.71-1.61-2.86c-0.45-1.56-0.68-2.34-1.13-3.9
					c-0.52-1.56-0.78-2.34-1.29-3.89c-0.46-3.22-0.68-4.83-1.14-8.05c-0.32-1.25-0.49-1.87-0.81-3.12c-0.07-1.87-0.1-2.8-0.17-4.67
					c-0.2-1.46-0.29-2.18-0.49-3.64c-0.07-3.53-0.1-5.3-0.17-8.83c0-1.66,0-2.49,0-4.15c-0.13-2.39-0.2-3.58-0.33-5.97
					c0-2.49,0-3.74-0.01-6.24c0.06-1.56,0.09-2.34,0.16-3.89c-0.07-8.42-0.11-12.63-0.19-21.04c0.13-1.87,0.19-2.81,0.32-4.67
					c-0.07-3.53-0.1-5.3-0.17-8.83c0.06-1.56,0.1-2.34,0.16-3.9c-0.2-5.19-0.3-7.79-0.51-12.98c0.19-6.44,0.28-9.67,0.47-16.11
					c-0.2-4.78-0.3-7.17-0.51-11.95c0.13-2.08,0.19-3.12,0.32-5.2c-0.14-4.47-0.2-6.7-0.34-11.17c0.06-1.66,0.1-2.49,0.16-4.16
					c-0.13-1.66-0.2-2.49-0.33-4.15c0-1.25,0-1.87,0-3.12c0.39-1.77,0.59-2.66,0.98-4.43c0.92-0.74,1.38-1.1,2.31-1.84
					c1.12,0.1,1.68,0.14,2.8,0.24c1.12,0.72,1.68,1.08,2.8,1.81c0.72,1.35,1.09,2.03,1.81,3.38c0.13,1.35,0.2,2.03,0.33,3.38
					c0.07,1.35,0.1,2.03,0.16,3.38c-0.07,1.87-0.1,2.8-0.17,4.67c0.13,3.33,0.2,4.99,0.33,8.32c-0.07,13.41-0.1,20.11-0.17,33.52
					c0.13,1.56,0.2,2.34,0.33,3.9c0,9.98,0,14.97-0.01,24.94c-0.13,1.66-0.2,2.49-0.33,4.15c0.13,1.46,0.2,2.18,0.32,3.64
					c0,1.97,0,2.96,0,4.93c-0.2,3.12-0.29,4.68-0.49,7.79c0.19,1.56,0.29,2.34,0.49,3.9c0.06,1.66,0.1,2.49,0.16,4.16
					c-0.2,5.09-0.29,7.64-0.49,12.73c0.06,3.53,0.1,5.3,0.16,8.83c0.19,1.45,0.29,2.18,0.48,3.64c0.06,1.56,0.1,2.34,0.16,3.9
					c0.52,3.53,0.78,5.3,1.29,8.83c0.71,3.01,1.06,4.52,1.77,7.54c0.58,1.35,0.87,2.03,1.45,3.38c0.84,1.04,1.26,1.56,2.1,2.6
					c0.97,0.21,1.45,0.31,2.42,0.52c0.97,0.42,1.45,0.63,2.42,1.04c1.48,0.21,2.22,0.32,3.71,0.53c1.48,0.11,2.23,0.16,3.71,0.27
					c1.1-0.31,1.65-0.46,2.74-0.77c1.68-1.45,2.52-2.17,4.21-3.61c0.72-1.45,1.07-2.17,1.79-3.62c0.33-1.14,0.49-1.71,0.82-2.85
					c0.66-3.31,0.99-4.97,1.65-8.28c0.14-1.86,0.21-2.79,0.34-4.65c0.27-1.66,0.4-2.48,0.66-4.14c0.01-1.76,0.01-2.64,0.02-4.4
					c-0.06-1.66-0.09-2.49-0.14-4.15c0.14-1.45,0.2-2.17,0.34-3.62c-0.02-9.84-0.03-14.76-0.06-24.59c0.14-1.76,0.21-2.64,0.34-4.4
					c-0.06-1.66-0.09-2.49-0.15-4.14c0.16-6.83,0.24-10.25,0.4-17.08c-0.12-1.45-0.19-2.18-0.31-3.63c0.09-4.76,0.13-7.14,0.21-11.9
					c-0.06-1.66-0.09-2.49-0.15-4.15c0.08-3.41,0.12-5.12,0.2-8.54c-0.12-3.01-0.18-4.51-0.3-7.52c0.2-1.96,0.31-2.94,0.51-4.9
					c-0.13-1.35-0.19-2.03-0.31-3.38c0.17-9.94,0.26-14.9,0.43-24.84c-0.19-1.77-0.28-2.65-0.47-4.42c0.73-1.32,1.1-1.98,1.83-3.29
					c1.12-0.78,1.68-1.17,2.81-1.94c1.06-0.26,1.58-0.39,2.64-0.65c0.98,0.88,1.47,1.32,2.46,2.19c0.65,2,0.97,3,1.62,4.99
					c-0.01,1.65-0.01,2.48-0.02,4.13c-0.14,1.34-0.21,2-0.35,3.34c0.05,3.41,0.07,5.12,0.12,8.53c0.06,1.34,0.09,2.02,0.15,3.36
					c-0.19,10.84-0.29,16.25-0.48,27.09c0.05,2.48,0.08,3.72,0.13,6.2c-0.07,1.44-0.11,2.17-0.18,3.61c0.1,5.27,0.15,7.9,0.25,13.17
					c-0.2,1.54-0.31,2.31-0.51,3.86c0.12,1.76,0.18,2.64,0.3,4.4c-0.07,1.75-0.11,2.63-0.19,4.39c0.05,3,0.07,4.49,0.12,7.49
					c-0.15,3.2-0.22,4.8-0.37,7.99c0.06,1.65,0.08,2.48,0.14,4.13c-0.07,1.65-0.11,2.48-0.19,4.13c0.05,1.96,0.08,2.94,0.14,4.91
					c0.12,2.17,0.18,3.26,0.29,5.43c-0.21,2.47-0.31,3.71-0.52,6.19c-0.01,1.65-0.01,2.48-0.02,4.13c-0.14,1.65-0.21,2.48-0.35,4.13
					c-0.01,1.75-0.01,2.63-0.02,4.39c-0.54,4.74-0.81,7.12-1.36,11.86c-0.99,4.84-1.49,7.27-2.48,12.12
					c-0.52,1.34-0.79,2.01-1.31,3.36c-0.52,1.24-0.78,1.86-1.3,3.1c-0.84,1.13-1.26,1.7-2.11,2.84c-0.71,1.03-1.07,1.55-1.79,2.59
					c-0.97,0.72-1.45,1.08-2.42,1.81c-1.81,1.03-2.71,1.55-4.52,2.58c-2,0.52-3,0.77-5,1.29c-3.03,0.1-4.54,0.15-7.57,0.25
					C709.73,474.87,709.12,474.72,707.9,474.41z"/>
				<path class="st1" d="M807.43,472.64c-1.14-1.2-1.72-1.8-2.86-3.01c-0.68-1.9-1.03-2.86-1.71-4.76
					c-0.61-2.51-0.92-3.76-1.53-6.28c-0.24-1.61-0.36-2.41-0.6-4.01c-0.43-1.51-0.65-2.27-1.09-3.78c-0.24-1.61-0.36-2.41-0.6-4.02
					c-0.43-1.42-0.65-2.12-1.09-3.54c-0.24-1.41-0.36-2.12-0.6-3.53c-0.8-2.94-1.21-4.41-2.01-7.35c-0.24-1.31-0.37-1.97-0.61-3.29
					c-0.81-3.05-1.21-4.57-2.01-7.63c-0.44-1.33-0.66-1.99-1.09-3.32c-0.55-3.25-0.82-4.88-1.37-8.13
					c-0.38-1.33-0.56-1.99-0.94-3.32c-0.7-1.55-1.04-2.32-1.74-3.88c-0.83-1.35-1.24-2.03-2.07-3.39c-1.17-0.06-1.75-0.08-2.92-0.14
					c-2.2-0.31-3.31-0.46-5.51-0.76c-0.98,0.06-1.46,0.09-2.44,0.15c-0.86,1.19-1.28,1.78-2.14,2.97c-0.21,1.83-0.32,2.74-0.53,4.57
					c0.11,1.64,0.17,2.45,0.29,4.09c-0.01,1.53-0.02,2.3-0.04,3.83c0.05,1.73,0.07,2.6,0.12,4.34c-0.24,18.66-0.35,27.99-0.59,46.65
					c-0.34,1.43-0.5,2.14-0.84,3.57c-0.79,1.32-1.18,1.98-1.96,3.31c-1.1,0.3-1.65,0.45-2.75,0.76c-1.03-0.51-1.54-0.77-2.57-1.29
					c-0.76-1.13-1.15-1.69-1.91-2.82c-0.18-1.64-0.27-2.46-0.45-4.1c-0.05-1.33-0.08-2-0.13-3.33c0.16-3.69,0.24-5.53,0.4-9.22
					c-0.17-2.97-0.25-4.46-0.43-7.44c-0.04-2.87-0.06-4.31-0.1-7.18c0.22-3.89,0.34-5.84,0.56-9.73c0.02-1.95,0.02-2.92,0.04-4.87
					c0.08-1.95,0.12-2.92,0.2-4.87c-0.15-5.64-0.22-8.46-0.37-14.1c0.21-1.84,0.31-2.76,0.52-4.6c0.01-1.64,0.02-2.46,0.03-4.1
					c-0.12-1.75-0.17-2.62-0.29-4.37c0.22-3.07,0.33-4.6,0.55-7.67c0-8.1,0-12.15,0-20.24c-0.18-1.65-0.27-2.48-0.46-4.13
					c0.03-3.28,0.04-4.92,0.06-8.2c0.21-1.63,0.31-2.44,0.52-4.07c0.01-1.74,0.02-2.61,0.03-4.36c-0.25-1.65-0.37-2.48-0.62-4.14
					c0.08-1.43,0.12-2.15,0.19-3.58c0.21-1.73,0.32-2.59,0.53-4.32c0.02-2.66,0.03-4,0.05-6.66c-0.18-2.27-0.27-3.4-0.45-5.67
					c0.21-1.63,0.31-2.44,0.52-4.06c0.08-1.53,0.12-2.3,0.19-3.83c-0.17-3.19-0.26-4.79-0.43-7.98c0.21-1.73,0.32-2.59,0.53-4.31
					c1.19-1.24,1.79-1.86,2.99-3.09c1.77,0.05,2.66,0.07,4.44,0.13c1.19-0.3,1.78-0.45,2.97-0.75c1.25,0.22,1.87,0.33,3.12,0.55
					c1.11,0.52,1.67,0.78,2.78,1.29c0.99-0.31,1.48-0.46,2.47-0.76c1.31,0.44,1.96,0.66,3.27,1.11c1.7,0.29,2.56,0.43,4.26,0.73
					c1.44,0.47,2.16,0.7,3.6,1.17c0.85-0.1,1.28-0.15,2.13-0.25c1.17,0.85,1.76,1.27,2.93,2.12c0.85,0.51,1.27,0.76,2.11,1.27
					c1.04,0.83,1.56,1.25,2.6,2.08c1.75,1.73,2.62,2.59,4.37,4.31c0.77,1.1,1.16,1.65,1.93,2.75c0.7,1.39,1.05,2.08,1.75,3.47
					c0.7,1.19,1.06,1.78,1.76,2.97c0.31,1.14,0.47,1.7,0.78,2.84c0.7,1.58,1.05,2.37,1.74,3.95c0.54,3.35,0.81,5.02,1.35,8.36
					c0.15,3.19,0.23,4.79,0.38,7.98c0.3,2.02,0.45,3.03,0.75,5.05c-0.16,2.36-0.25,3.54-0.41,5.9c-0.22,1.76-0.33,2.64-0.55,4.4
					c-0.15,1.47-0.23,2.21-0.38,3.68c-0.09,1.68-0.13,2.51-0.22,4.19c-0.22,1.77-0.33,2.65-0.55,4.41
					c-0.75,2.81-1.13,4.21-1.88,7.03c-0.54,1.44-0.81,2.17-1.35,3.61c-0.67,1.34-1,2.01-1.67,3.35c-0.47,1.26-0.71,1.89-1.18,3.15
					c-0.79,1.04-1.19,1.56-1.98,2.6c-0.86,0.84-1.28,1.26-2.14,2.1c-0.92,0.84-1.38,1.26-2.3,2.1c-0.86,1.05-1.29,1.57-2.14,2.62
					c-0.47,1.58-0.71,2.37-1.18,3.94c0.17,1.82,0.26,2.72,0.43,4.54c1.35,6.3,2.03,9.44,3.37,15.7c0.44,1.32,0.65,1.98,1.09,3.3
					c0.24,1.51,0.36,2.26,0.6,3.77c0.31,1.31,0.46,1.97,0.77,3.28c0.43,1.52,0.65,2.27,1.08,3.79c0.24,1.31,0.36,1.96,0.6,3.26
					c0.36,1.81,0.55,2.71,0.91,4.52c1.05,3.82,1.57,5.72,2.62,9.53c0.36,2,0.54,3,0.9,4.99c0.8,2.8,1.2,4.19,2,6.98
					c0.36,1.59,0.55,2.39,0.91,3.97c0.05,1.39,0.07,2.08,0.11,3.47c-0.73,1.38-1.09,2.07-1.82,3.45c-0.84,0.39-1.26,0.59-2.11,0.98
					C809.55,473.1,808.84,472.94,807.43,472.64z M786.15,384.99c0.98-0.35,1.47-0.52,2.45-0.87c0.91-0.05,1.37-0.07,2.28-0.11
					c1.04-0.34,1.57-0.51,2.61-0.84c1.05-0.84,1.58-1.26,2.63-2.09c0.92-0.64,1.38-0.97,2.29-1.61c0.79-0.85,1.19-1.27,1.98-2.12
					c1.48-3.81,2.22-5.7,3.7-9.48c0.41-1.67,0.62-2.5,1.03-4.17c0.02-1.7,0.03-2.55,0.05-4.24c0.28-1.38,0.42-2.06,0.7-3.44
					c0.1-2.39,0.14-3.58,0.24-5.97c-0.11-6.41-0.17-9.62-0.29-16.03c-0.31-1.54-0.46-2.3-0.77-3.84c-1.71-4.19-2.57-6.29-4.28-10.5
					c-0.9-1.31-1.35-1.96-2.25-3.27c-0.78-0.79-1.17-1.19-1.94-1.98c-0.91-0.6-1.36-0.91-2.27-1.51c-2.54-1.09-3.81-1.63-6.36-2.7
					c-2.81-0.6-4.22-0.89-7.03-1.46c-1.12,0.1-1.68,0.14-2.79,0.24c-0.92,0.42-1.38,0.64-2.31,1.06c-0.67,0.86-1,1.29-1.66,2.15
					c-0.48,1.9-0.71,2.85-1.19,4.75c0.05,1.33,0.08,2,0.13,3.33c0.03,3.37,0.05,5.06,0.09,8.43c-0.15,2.03-0.22,3.05-0.37,5.08
					c-0.09,2.34-0.13,3.51-0.22,5.85c0.11,1.74,0.17,2.61,0.29,4.35c-0.17,4.07-0.25,6.11-0.42,10.18c0.04,2.35,0.07,3.52,0.11,5.87
					c-0.08,1.93-0.12,2.9-0.21,4.84c0.12,1.33,0.18,2,0.3,3.33c-0.08,1.63-0.12,2.44-0.2,4.07c0.05,1.53,0.08,2.3,0.13,3.83
					c0.31,1.65,0.47,2.47,0.78,4.12c0.77,1.36,1.15,2.05,1.92,3.41c1.3,0.37,1.95,0.56,3.24,0.93
					C781.56,384.73,783.09,384.82,786.15,384.99z"/>
				<path class="st1" d="M824.04,470.53c-0.24-1.58-0.35-2.36-0.59-3.94c1.27-7.46,1.9-11.18,3.18-18.59
					c0.41-1.36,0.61-2.04,1.02-3.4c0.15-1.56,0.23-2.34,0.38-3.9c0.34-1.36,0.51-2.04,0.86-3.4c1.43-9.44,2.15-14.14,3.59-23.52
					c0.97-4.33,1.46-6.49,2.43-10.8c0.22-1.44,0.33-2.17,0.54-3.61c1.07-6.34,1.61-9.51,2.68-15.82c0.15-1.35,0.23-2.02,0.38-3.36
					c0.69-2.85,1.04-4.27,1.73-7.1c0.15-1.34,0.23-2.01,0.38-3.35c1.48-7.59,2.23-11.37,3.71-18.91c0.09-1.34,0.13-2.01,0.22-3.35
					c0.48-1.48,0.72-2.22,1.2-3.7c0.37-3.04,0.56-4.55,0.94-7.58c0.64-2.99,0.95-4.48,1.59-7.46c0.34-1.1,0.52-1.65,0.86-2.75
					c0.22-1.5,0.33-2.26,0.55-3.76c0.16-1.51,0.23-2.27,0.39-3.78c0.7-2.96,1.05-4.43,1.75-7.37c0.67-1.32,1.01-1.97,1.69-3.28
					c1.18-0.63,1.77-0.95,2.96-1.57c1.04,0.02,1.56,0.03,2.6,0.05c0.97,0.48,1.45,0.73,2.42,1.21c1.03,0.88,1.54,1.31,2.57,2.19
					c0.69,1.47,1.03,2.2,1.72,3.67c0.36,1.68,0.54,2.52,0.9,4.2c0.16,1.73,0.25,2.6,0.41,4.33c0.77,4.49,1.15,6.73,1.91,11.2
					c0.27,2.97,0.41,4.45,0.68,7.41c1.07,5.64,1.6,8.45,2.67,14.06c0.5,4.67,0.75,7,1.25,11.65c0.36,1.36,0.55,2.04,0.91,3.4
					c0.1,1.69,0.15,2.54,0.25,4.23c1,5.74,1.49,8.59,2.49,14.29c0.1,1.5,0.15,2.25,0.25,3.74c0.92,5.96,1.39,8.93,2.31,14.85
					c0.16,1.68,0.24,2.52,0.41,4.2c0.3,1.23,0.45,1.84,0.75,3.07c0.04,1.48,0.06,2.22,0.09,3.7c0.89,4.41,1.33,6.62,2.22,11
					c0.21,2.77,0.31,4.16,0.52,6.93c0.35,1.77,0.53,2.65,0.88,4.41c0.04,1.1,0.07,1.66,0.11,2.76c1.05,5.74,1.58,8.6,2.64,14.29
					c0.56,4.49,0.84,6.73,1.4,11.2c-0.35,1.45-0.52,2.18-0.87,3.63c-0.85,0.54-1.27,0.81-2.12,1.35c-1.16-0.01-1.74-0.02-2.9-0.03
					c-1.21-0.93-1.81-1.4-3.02-2.33c-0.81-1.21-1.22-1.82-2.04-3.03c-0.27-2.96-0.4-4.45-0.67-7.41c-0.23-1.49-0.35-2.23-0.58-3.72
					c-0.36-1.31-0.55-1.96-0.91-3.28c-0.33-3.26-0.49-4.89-0.82-8.16c-0.29-1.5-0.44-2.25-0.74-3.75c-0.16-1.59-0.25-2.39-0.41-3.98
					c-0.47-2.73-0.7-4.09-1.17-6.83c-0.74-1.73-1.12-2.59-1.86-4.33c-1.02-0.82-1.53-1.23-2.54-2.05c-2.97-0.21-4.45-0.31-7.42-0.52
					c-1.54-0.39-2.32-0.59-3.86-0.98c-1.36-0.09-2.03-0.14-3.39-0.23c-0.97,0.13-1.46,0.19-2.43,0.32
					c-2.19-0.14-3.29-0.21-5.49-0.35c-1.18,0.7-1.76,1.05-2.94,1.76c-0.67,1.7-1.01,2.55-1.68,4.25
					c-2.29,14.01-3.44,21.05-5.72,35.21c-0.41,1.26-0.61,1.89-1.02,3.14c-0.8,1.45-1.19,2.18-1.99,3.63
					c-1.05,1.06-1.57,1.59-2.62,2.66c-1.29-0.01-1.93-0.01-3.22-0.02C825.47,472.16,824.99,471.62,824.04,470.53z M861.32,410.38
					c2,0.17,3,0.25,5,0.43c0.85-0.4,1.27-0.59,2.12-0.99c0.22-1.48,0.33-2.22,0.55-3.7c-0.46-3.14-0.69-4.71-1.15-7.86
					c-0.1-1.61-0.15-2.41-0.25-4.02c-0.23-1.53-0.35-2.3-0.58-3.83c-0.11-1.14-0.16-1.71-0.27-2.85c-0.36-1.36-0.55-2.04-0.91-3.41
					c-0.1-1.71-0.15-2.56-0.25-4.27c-0.23-1.44-0.35-2.17-0.58-3.61c-0.43-1.38-0.64-2.07-1.07-3.44c-0.21-3.05-0.31-4.58-0.51-7.64
					c-0.41-2.61-0.61-3.92-1.02-6.54c-0.16-2.2-0.23-3.3-0.39-5.51c-0.58-4.26-0.86-6.39-1.44-10.67c-0.2-3.17-0.31-4.76-0.51-7.93
					c-0.53-3.14-0.8-4.71-1.33-7.85c-0.19-0.32-0.28-0.48-0.47-0.8c-0.51,2.96-0.76,4.44-1.27,7.41c-0.76,6.46-1.14,9.69-1.9,16.17
					c-0.34,1-0.51,1.5-0.85,2.5c-0.73,4.77-1.09,7.17-1.82,11.96c-0.09,1.42-0.13,2.14-0.22,3.56c-0.35,1.49-0.52,2.24-0.87,3.73
					c-0.28,1.31-0.42,1.96-0.71,3.27c-0.63,2.71-0.94,4.07-1.57,6.79c-0.09,1.82-0.14,2.72-0.24,4.54
					c-0.28,1.41-0.42,2.12-0.71,3.53c-0.69,2.62-1.04,3.94-1.73,6.58c-0.09,1.82-0.14,2.73-0.24,4.56
					c-0.22,1.23-0.32,1.85-0.54,3.09c0.1,1.74,0.15,2.62,0.26,4.36c0.9,0.65,1.34,0.97,2.24,1.62c1.1,0.08,1.65,0.13,2.75,0.21
					c0.97-0.02,1.46-0.03,2.43-0.05c2.06,0.36,3.1,0.54,5.16,0.9C859.57,410.52,860.16,410.47,861.32,410.38z"/>
				<path class="st1" d="M944.89,472.26c-0.88-1.25-1.32-1.88-2.19-3.14c-0.36-1.16-0.55-1.75-0.91-2.92
					c-1.19-5.09-1.79-7.65-2.98-12.8c-0.23-1.43-0.35-2.15-0.58-3.58c-0.43-1.28-0.64-1.92-1.07-3.2c-0.17-1.18-0.26-1.78-0.43-2.96
					c-1.02-4.1-1.53-6.16-2.54-10.31c-0.17-1.03-0.26-1.54-0.43-2.57c-1.32-5.11-1.98-7.68-3.29-12.86
					c-0.46-3.03-0.69-4.55-1.14-7.6c-0.42-1.42-0.63-2.13-1.06-3.56c-0.23-1.4-0.35-2.1-0.58-3.5c-0.43-1.01-0.65-1.51-1.08-2.52
					c-0.52-2.91-0.79-4.37-1.31-7.29c-0.42-1.36-0.64-2.04-1.06-3.4c-0.1-1.4-0.15-2.1-0.25-3.5c-0.43-1.28-0.64-1.92-1.06-3.21
					c-2.23-11.04-3.35-16.61-5.58-27.87c-0.11-1.25-0.16-1.87-0.26-3.12c-0.76-4.2-1.14-6.31-1.89-10.54
					c-0.36-1.23-0.54-1.85-0.91-3.08c-0.25-0.15-0.38-0.23-0.64-0.38c0.04,1.33,0.06,2,0.1,3.33c-0.09,1.48-0.14,2.22-0.23,3.69
					c0.1,1.52,0.15,2.28,0.25,3.8c-0.09,1.39-0.14,2.08-0.23,3.48c0.1,1.43,0.15,2.15,0.25,3.58c-0.09,1.13-0.13,1.69-0.21,2.82
					c0.1,1.52,0.15,2.28,0.25,3.79c-0.11,2.18-0.16,3.27-0.26,5.45c-0.02,7.74-0.03,11.61-0.05,19.34
					c-0.22,1.28-0.33,1.93-0.54,3.21c0.09,5.64,0.13,8.46,0.21,14.1c-0.09,1.48-0.14,2.22-0.23,3.71c0.1,1.59,0.15,2.39,0.25,3.98
					c-0.09,1.22-0.13,1.83-0.22,3.05c-0.15,1.3-0.23,1.95-0.38,3.25c0.01,3.08,0.01,4.61,0.01,7.69c0.09,2.12,0.13,3.17,0.22,5.29
					c-0.23,1.91-0.34,2.87-0.57,4.78c0.1,1.67,0.15,2.51,0.24,4.18c-0.09,1.14-0.13,1.7-0.21,2.84c-0.03,1.4-0.04,2.1-0.07,3.5
					c0.1,1.59,0.15,2.38,0.25,3.96c-0.22,1.57-0.33,2.35-0.56,3.92c0.02,5.53,0.04,8.29,0.06,13.82c-0.6,1.3-0.91,1.96-1.51,3.27
					c-1.55,0.51-2.33,0.76-3.89,1.28c-1.47-0.72-2.2-1.09-3.67-1.82c-0.49-1.16-0.74-1.75-1.23-2.92c0.07-7.13,0.11-10.7,0.18-17.84
					c0.15-1.33,0.23-2,0.39-3.33c-0.1-1.7-0.14-2.55-0.24-4.25c0.17-5.79,0.26-8.69,0.44-14.48c-0.06-3.58-0.09-5.37-0.15-8.95
					c0.09-1.24,0.13-1.86,0.22-3.1c0.04-2.14,0.06-3.21,0.1-5.35c0.16-1.41,0.23-2.12,0.39-3.53c-0.13-3.41-0.19-5.12-0.32-8.53
					c0.13-3.65,0.2-5.47,0.33-9.12c-0.03-1.61-0.05-2.42-0.08-4.04c0.09-1.15,0.13-1.73,0.22-2.88c-0.03-1.7-0.05-2.56-0.08-4.26
					c0.15-1.32,0.23-1.98,0.38-3.29c-0.17-1.37-0.25-2.05-0.42-3.43c0.25-2.73,0.37-4.1,0.61-6.83c0.03-1.61,0.05-2.41,0.08-4.01
					c-0.11-1.18-0.16-1.78-0.27-2.96c0.15-4.54,0.23-6.81,0.38-11.34c-0.04-1.44-0.06-2.16-0.09-3.6c0.26-6.66,0.38-9.99,0.64-16.65
					c-0.03-1.62-0.05-2.43-0.08-4.05c0.54-1.39,0.81-2.08,1.35-3.46c1.49-0.32,2.23-0.48,3.72-0.79c1.6,0.52,2.4,0.79,4,1.31
					c1.09,0.12,1.64,0.19,2.73,0.32c1.01,1.07,1.51,1.61,2.52,2.68c0.93,1.66,1.4,2.49,2.33,4.14c0.36,1.32,0.54,1.98,0.9,3.29
					c0.23,1.28,0.35,1.92,0.58,3.2c0.1,1.5,0.15,2.25,0.25,3.75c0.78,2.64,1.18,3.95,1.96,6.57c3.24,15.43,4.86,23.04,8.11,38.01
					c0.11,1.21,0.16,1.81,0.26,3.02c0.3,1.24,0.45,1.86,0.74,3.1c0.49,1.44,0.73,2.17,1.21,3.6c0.89,3.87,1.34,5.8,2.23,9.64
					c0.46,2.68,0.7,4.02,1.16,6.68c1.96,8.33,2.95,12.46,4.92,20.62c0.28,2.02,0.43,3.03,0.71,5.04c0.3,1.35,0.44,2.03,0.74,3.37
					c0.49,1.53,0.73,2.29,1.22,3.82c0.23,1.34,0.35,2,0.58,3.33c0.1,1.32,0.16,1.98,0.26,3.31c0.53,2.83,0.79,4.24,1.32,7.05
					c0.36,1.25,0.54,1.87,0.91,3.11c0.26-0.07,0.39-0.11,0.65-0.18c0.14-4.07,0.2-6.1,0.34-10.17c-0.28-2.38-0.42-3.58-0.7-5.97
					c0.15-1.38,0.23-2.06,0.38-3.44c0.03-1.47,0.04-2.2,0.06-3.67c-0.16-1.89-0.24-2.84-0.4-4.74c0.22-1.86,0.34-2.78,0.56-4.63
					c-0.09-1.89-0.14-2.83-0.24-4.73c0.19-3.25,0.28-4.87,0.46-8.11c-0.11-1.08-0.16-1.62-0.27-2.7c0.36-16.79,0.54-25.19,0.9-41.97
					c-0.15-2.09-0.23-3.13-0.39-5.22c0.16-1.84,0.24-2.77,0.4-4.61c-0.11-1.09-0.16-1.64-0.27-2.74c0.15-1.19,0.22-1.78,0.37-2.97
					c-0.04-1.4-0.06-2.11-0.1-3.51c0.08-1.21,0.13-1.81,0.21-3.01c-0.12-3.97-0.18-5.96-0.3-9.94c0.46-1.08,0.7-1.62,1.16-2.7
					c0.83-0.14,1.25-0.2,2.08-0.34c1.07,0.44,1.61,0.66,2.68,1.1c0.94,0.72,1.41,1.08,2.35,1.8c0.61,1.34,0.92,2,1.53,3.33
					c0.17,1.18,0.26,1.77,0.43,2.95c0.09,2.27,0.13,3.41,0.22,5.68c-0.15,1.24-0.22,1.85-0.37,3.09c0.1,1.47,0.15,2.21,0.26,3.68
					c-0.15,1.24-0.22,1.86-0.37,3.1c0.14,6.53,0.22,9.79,0.36,16.31c-0.14,0.92-0.21,1.39-0.36,2.31c0.08,2.98,0.12,4.47,0.19,7.44
					c-0.08,1.26-0.13,1.89-0.21,3.15c-0.15,1.09-0.22,1.63-0.36,2.72c0.02,6.64,0.02,9.96,0.04,16.6c-0.15,1.09-0.22,1.64-0.37,2.74
					c0.1,1.38,0.16,2.06,0.26,3.44c-0.15,5.33-0.23,7.99-0.38,13.32c0.04,1.28,0.06,1.93,0.11,3.21c-0.15,1.1-0.22,1.65-0.37,2.75
					c0.11,1.21,0.16,1.82,0.27,3.03c-0.02,1.27-0.03,1.91-0.05,3.19c-0.15,1.34-0.23,2.01-0.38,3.36c0.04,5.19,0.06,7.79,0.1,12.97
					c-0.15,1.03-0.22,1.54-0.36,2.57c-0.02,1.44-0.04,2.15-0.06,3.59c0.1,1.44,0.16,2.16,0.26,3.6c-0.15,1.11-0.22,1.67-0.37,2.78
					c-0.02,1.12-0.03,1.67-0.05,2.79c-0.48,1.58-0.72,2.38-1.19,3.97c-0.97,0.46-1.46,0.7-2.43,1.17c-0.96-0.01-1.45-0.02-2.41-0.03
					c-1.16-0.1-1.74-0.14-2.89-0.24c-0.9,0.15-1.35,0.23-2.26,0.38C946.61,473.39,946.03,473.02,944.89,472.26z"/>
				<path class="st1" d="M1000.16,474.5c-1.22-0.31-1.83-0.46-3.05-0.77c-0.57-0.88-0.85-1.32-1.42-2.2
					c-0.23-2.03-0.35-3.05-0.58-5.09c0.08-1.38,0.12-2.06,0.2-3.44c-0.12-1.09-0.17-1.64-0.29-2.74c0.15-2.32,0.23-3.47,0.39-5.78
					c-0.03-2.91-0.05-4.36-0.08-7.27c0.17-4.05,0.26-6.07,0.43-10.12c-0.18-1.04-0.27-1.56-0.45-2.6c0.14-1.07,0.21-1.61,0.35-2.68
					c-0.05-1.17-0.08-1.76-0.13-2.93c0.08-1.22,0.12-1.83,0.19-3.06c0.01-1.02,0.02-1.52,0.03-2.54c0.08-1.37,0.12-2.05,0.2-3.42
					c-0.11-1.26-0.17-1.88-0.28-3.14c0.02-2.03,0.03-3.05,0.06-5.08c0.14-1.35,0.21-2.03,0.35-3.38c0.01-1.09,0.02-1.63,0.03-2.72
					c-0.11-1.26-0.17-1.89-0.28-3.15c0.18-16.04,0.27-24.06,0.45-40.09c-0.55-1.43-0.82-2.15-1.37-3.59
					c-0.93-0.92-1.4-1.38-2.33-2.31c-2-0.65-3-0.97-5.01-1.6c-0.94-0.48-1.4-0.72-2.34-1.2c-1.13-0.25-1.7-0.37-2.83-0.61
					c-1.88-0.95-2.82-1.43-4.7-2.38c-1.06-0.9-1.59-1.35-2.65-2.25c-0.42-1.61-0.63-2.42-1.05-4.04c0.46-1.01,0.69-1.51,1.15-2.5
					c1.08-0.39,1.62-0.58,2.69-0.95c1.44,0.61,2.16,0.91,3.6,1.52c1.44,0.31,2.16,0.47,3.61,0.79c1.06,0.55,1.59,0.83,2.65,1.38
					c2.19,0.69,3.28,1.04,5.46,1.75c0.93,0.59,1.4,0.88,2.33,1.47c0.93,0.29,1.4,0.44,2.33,0.74c0.99,0.47,1.49,0.7,2.49,1.17
					c1,0.18,1.49,0.28,2.49,0.47c0.99,0.55,1.49,0.82,2.48,1.37c0.99,0.12,1.49,0.19,2.48,0.32c0.93,0.6,1.39,0.89,2.32,1.49
					c2.1,0.95,3.15,1.43,5.25,2.39c2.04,0.59,3.06,0.9,5.09,1.51c1.91,1.17,2.86,1.75,4.77,2.92c1.04,0.86,1.57,1.28,2.61,2.13
					c0.37,1.6,0.55,2.4,0.92,3.99c-0.43,1.05-0.65,1.58-1.08,2.65c-1.42-0.13-2.13-0.19-3.55-0.3c-2.59-1.18-3.89-1.77-6.49-2.94
					c-0.93-0.3-1.39-0.45-2.32-0.75c-0.93-0.5-1.39-0.75-2.32-1.25c-1.12-0.23-1.68-0.34-2.79-0.56c-0.87,0.22-1.31,0.33-2.19,0.57
					c-0.57,0.91-0.85,1.37-1.42,2.29c-0.07,0.89-0.11,1.34-0.18,2.23c0.18,1.19,0.27,1.79,0.44,2.98c-0.14,1.22-0.2,1.83-0.34,3.05
					c0.1,2.43,0.16,3.65,0.26,6.07c-0.13,0.73-0.2,1.1-0.33,1.84c0.04,2.55,0.06,3.82,0.1,6.37c-0.2,1-0.3,1.5-0.49,2.5
					c0.23,2.18,0.35,3.27,0.58,5.44c-0.2,1-0.3,1.51-0.49,2.51c-0.07,1.11-0.11,1.66-0.18,2.77c0.12,1.16,0.17,1.74,0.29,2.89
					c-0.01,1.26-0.02,1.9-0.03,3.16c-0.07,1.11-0.11,1.67-0.18,2.78c0.12,1.29,0.17,1.94,0.29,3.23c-0.14,1.03-0.2,1.54-0.34,2.57
					c0.05,1.49,0.08,2.23,0.13,3.72c-0.03,3.87-0.05,5.8-0.08,9.67c0.12,1.22,0.17,1.82,0.29,3.04c-0.2,1.16-0.3,1.75-0.5,2.92
					c0.05,1.06,0.08,1.6,0.14,2.66c-0.08,2.17-0.12,3.25-0.21,5.43c0.11,1.77,0.17,2.66,0.28,4.43c-0.08,1.61-0.12,2.42-0.19,4.03
					c0.05,1.27,0.08,1.91,0.13,3.18c-0.07,0.98-0.11,1.47-0.18,2.45c0.06,0.92,0.08,1.38,0.14,2.29c-0.01,1.05-0.01,1.58-0.02,2.64
					c-0.14,1.05-0.21,1.57-0.34,2.62c0.18,1.28,0.27,1.91,0.45,3.18c0.06,0.98,0.08,1.48,0.14,2.46c-0.33,1.04-0.5,1.57-0.83,2.62
					c-1.1,0.47-1.65,0.71-2.74,1.19C1001.6,474.74,1001.12,474.66,1000.16,474.5z"/>
			</g>
		</g>
	</g>
	<g>
		<g>
			<g>
				<path class="st0" d="M734.88,234.81c0.73-15.47,1.93-30.92,2.45-46.41c0.26-7.73,0.35-15.47,0.49-23.2
					c0.14-7.73,0.09-15.47,0.26-23.2c0.19-8.73,0.35-17.47,0.58-26.2c0.02-0.77-1.15-0.76-1.2,0c-0.43,7.74-0.92,15.47-1.37,23.2
					c-0.46,7.74-1.11,15.47-1.6,23.2c-0.49,7.73-1.08,15.47-1.44,23.2c-0.36,7.73-0.62,15.47-0.8,23.2
					c-0.2,8.73-0.35,17.47-0.65,26.2c-0.03,0.89,0.78,1.64,1.64,1.64C734.17,236.45,734.84,235.7,734.88,234.81L734.88,234.81z"/>
			</g>
		</g>
		<g>
			<g>
				<path class="st0" d="M1066.88,900.13c11.25,3.17,22.55,6.15,33.86,9.1c13.27,3.47,26.57,6.97,39.58,11.33
					c2.81,0.94,5.61,1.94,8.37,3.02c2.32,0.91,4.25,1.72,6.61,2.88c8.31,4.09,16.4,8.71,24.47,13.26
					c16.64,9.39,33.26,18.77,50.18,27.65c17.07,8.96,34.26,17.76,51.74,25.9c2.21,1.03,4.42,2.05,6.66,3.03
					c0.63,0.28,1.2-0.61,0.56-0.95c-8.59-4.55-17.33-8.8-25.95-13.3c-8.6-4.48-17.16-9.05-25.65-13.74
					c-16.8-9.27-33.29-19.04-49.78-28.86c-13.41-7.98-26.84-16.29-41.59-21.58c-12.74-4.56-25.9-7.94-39.06-11.07
					c-12.01-2.86-24.17-5.12-36.15-8.1c-1.08-0.27-2.15-0.54-3.23-0.82C1066.05,897.52,1065.44,899.73,1066.88,900.13
					L1066.88,900.13z"/>
			</g>
		</g>
		<g>
			<g>
				<path class="st0" d="M341.98,867.49c-15.24,4.97-30.59,9.5-45.55,15.29c-15.01,5.81-29.55,12.69-43.41,20.88
					c-14.01,8.28-27.43,17.49-41.2,26.14c-13.68,8.6-27.61,16.79-41.75,24.6c-14.2,7.84-28.6,15.32-43.06,22.67
					c-1.8,0.91-3.59,1.82-5.39,2.74c-0.46,0.24-0.13,1.06,0.36,0.86c14.84-6.21,29.35-13.22,43.59-20.71
					c14.3-7.52,28.38-15.47,42.21-23.82c13.92-8.39,27.44-17.42,41.35-25.82c13.76-8.31,28.07-15.59,42.92-21.76
					c14.77-6.13,29.78-11.7,44.83-17.11c1.88-0.67,3.77-1.3,5.65-1.95C343.79,869.07,343.26,867.07,341.98,867.49L341.98,867.49z"/>
			</g>
		</g>
		<g>
			<g>
				<path class="st0" d="M1068.4,369.09c5.84-3.01,11.38-6.45,16.69-10.32c5.28-3.86,10.34-8.02,15.34-12.24
					c9.9-8.36,19.52-16.97,30.05-24.35c4.74-3.32,9.61-6.43,14.56-9.42c4.99-3.01,9.94-6.09,14.93-9.1
					c5.04-3.04,10.01-6.19,14.99-9.33c4.85-3.06,9.62-6.25,14.22-9.69c4.55-3.4,8.95-7,13.04-10.95c2.04-1.98,4.01-4.04,5.88-6.18
					c1.88-2.16,3.58-4.5,5.24-6.83c0.8-1.13,1.58-2.29,2.33-3.46c0.57-0.9-0.83-1.7-1.42-0.83c-6.27,9.3-14.64,17.19-23.6,23.88
					c-9.23,6.89-19.24,12.61-29.33,18.13c-10.21,5.58-20.38,11.19-30,17.76c-10.62,7.25-20.16,15.88-29.65,24.52
					c-9.57,8.72-19.3,17.22-30.1,24.42c-1.31,0.88-2.67,1.69-4.04,2.49C1066.56,368.15,1067.42,369.6,1068.4,369.09L1068.4,369.09z"
					/>
			</g>
		</g>
		<g>
			<g>
				<path class="st0" d="M90.27,224.84c2.38,1.98,4.68,4.05,7.09,5.99c3.48,2.81,7.09,5.46,10.69,8.11
					c9.4,6.95,19.07,13.55,28.75,20.1c10.76,7.29,21.6,14.45,32.55,21.44c9.62,6.13,19.3,12.16,29.21,17.8
					c6.28,3.58,12.62,6.98,19.35,9.62c0.11,0.04,0.22,0.09,0.34,0.14c0.25,0.1-0.41-0.18,0.04,0.02c0.29,0.13,0.57,0.25,0.85,0.38
					c0.62,0.28,1.23,0.57,1.83,0.87c1.46,0.72,2.89,1.48,4.32,2.26c3.69,2.01,7.32,4.14,10.96,6.25
					c9.6,5.57,19.06,11.37,28.53,17.16c10.84,6.63,21.66,13.28,32.55,19.82c10.07,6.05,20.16,12.1,30.43,17.82
					c7.24,4.04,14.62,8.15,22.44,10.95c1.18,0.42,2.37,0.79,3.58,1.09c0.73,0.18,1.04-0.95,0.31-1.13c-2.85-0.7-5.59-1.95-8.24-3.19
					c-3.81-1.79-7.54-3.76-11.24-5.77c-9.77-5.33-19.33-11.06-28.76-16.97c-10.73-6.72-21.38-13.58-32.03-20.42
					c-9.84-6.33-19.67-12.67-29.61-18.86c-6.99-4.36-14.03-8.73-21.44-12.37c-1.24-0.61-2.49-1.18-3.76-1.69
					c-0.5-0.2-1-0.38-1.5-0.57c-0.27-0.1-0.53-0.21-0.8-0.32c-0.16-0.06-0.32-0.13-0.48-0.2c0.4,0.17,0,0-0.17-0.07
					c-3.3-1.45-6.5-3.11-9.67-4.82c-9.32-5.03-18.39-10.54-27.41-16.08c-10.92-6.71-21.72-13.62-32.47-20.6
					c-10.25-6.66-20.44-13.43-30.55-20.3c-7.29-4.95-14.53-9.96-21.86-14.83c-1.09-0.72-2.1-1.54-3.11-2.37
					C90.49,223.69,89.76,224.41,90.27,224.84L90.27,224.84z"/>
			</g>
		</g>
		<g>
			<g>
				<path class="st0" d="M398.68,75.14c10.67,14.06,18.21,30.15,25.45,46.15c3.68,8.12,7.28,16.28,11.25,24.26
					c4.1,8.24,8.62,16.26,13.53,24.06c5.11,8.12,10.61,15.98,16.25,23.73c2.79,3.83,5.61,7.63,8.45,11.42
					c2.16,2.88,4.41,5.71,6.46,8.67c2.95,4.27,5.52,8.81,8,13.36c3.2,5.86,6.2,11.83,9.07,17.86c3.04,6.38,5.9,12.85,8.5,19.42
					c2.29,5.82,4.55,11.72,6.18,17.77c0.34,1.25,0.67,2.51,0.92,3.77c0.22,1.12,1.94,0.65,1.72-0.47
					c-2.52-12.8-7.19-24.97-12.37-36.91c-5.01-11.54-10.5-23.02-17.21-33.68c-3.78-6-8.31-11.53-12.51-17.24
					c-5.68-7.73-11.24-15.55-16.53-23.55c-5.24-7.92-10.16-16.05-14.58-24.46c-4.11-7.82-7.85-15.85-11.63-23.84
					c-7.52-15.91-15.03-32.15-25.59-46.33c-1.28-1.72-2.6-3.41-3.95-5.08C399.46,73.25,398.06,74.32,398.68,75.14L398.68,75.14z"/>
			</g>
		</g>
		<g>
			<g>
				<path class="st0" d="M947.59,265.34c1.69-7.19,3.67-14.31,5.36-21.5c1.69-7.19,3.38-14.39,5.02-21.59
					c3.12-13.68,6.11-27.41,9.79-40.96c3.6-13.26,7.94-26.35,13.74-38.82c5.41-11.63,11.67-22.85,17.3-34.38
					c2.78-5.7,5.4-11.49,7.62-17.43c1.1-2.94,2.01-5.9,2.91-8.9c0.92-3.07,1.55-6.17,2.16-9.31c0.3-1.55,0.56-3.1,0.79-4.66
					c0.09-0.63-0.86-0.91-0.97-0.27c-2.18,12.47-7.31,24.34-12.96,35.6c-5.75,11.46-12.38,22.45-18.04,33.95
					c-6.05,12.3-10.8,25.13-14.64,38.28c-3.91,13.38-6.96,26.98-9.95,40.59c-3.17,14.45-6.44,28.9-9.1,43.45
					c-0.33,1.81-0.67,3.61-1.05,5.41C945.3,266.1,947.28,266.66,947.59,265.34L947.59,265.34z"/>
			</g>
		</g>
		<g>
			<g>
				<path class="st0" d="M405.74,318.5c-5.22-9.63-11.35-18.83-17.98-27.55c-7.47-9.82-15.52-19.18-23.84-28.29
					c-8.76-9.6-17.85-18.89-27.03-28.09c-9.27-9.28-18.65-18.45-27.98-27.66c-8.99-8.87-17.94-17.8-26.72-26.88
					c-7.91-8.18-15.81-16.38-23.16-25.07c-2.51-2.97-4.9-6.04-7.52-8.9c-2.6-2.84-5.31-5.6-8.05-8.31
					c-7.11-7.02-14.5-13.77-21.98-20.4c-7.91-7.02-15.99-13.81-24.21-20.47c-6.49-5.26-13.06-10.54-20.07-15.09
					c-1.2-0.78-2.43-1.5-3.65-2.25c-0.3-0.18-0.57,0.28-0.27,0.47c2.71,1.68,5.24,3.71,7.77,5.63c3.44,2.61,6.81,5.32,10.15,8.05
					c7.93,6.48,15.63,13.26,23.26,20.1c7.7,6.9,15.27,13.94,22.62,21.21c5.37,5.32,10.8,10.71,15.46,16.68
					c6.5,8.32,13.67,16.85,20.94,24.84c8.26,9.09,16.98,17.76,25.7,26.4c9.27,9.18,18.61,18.28,27.89,27.44
					c9.26,9.16,18.43,18.4,27.45,27.8c8.64,9.02,17.05,18.26,25.08,27.83c7.23,8.62,14.22,17.53,20.22,27.05
					c1.37,2.17,2.69,4.38,3.95,6.61C404.49,320.95,406.45,319.8,405.74,318.5L405.74,318.5z"/>
			</g>
		</g>
		<g>
			<g>
				<path class="st0" d="M627.08,248.58c-1.02-12.44-2.84-24.85-5.41-37.06c-2.57-12.2-5.94-24.22-10.18-35.95
					c-4.25-11.75-9.27-23.23-15.17-34.24c-3-5.6-6.13-11.15-8.89-16.88c-2.7-5.62-4.74-11.47-6.33-17.49
					c-3.19-12.04-5.03-24.49-9.19-36.26c-0.52-1.47-1.09-2.91-1.69-4.34c-0.24-0.57-1.16-0.35-0.95,0.26
					c4.14,11.79,5.58,24.2,8,36.4c1.21,6.1,2.76,12.14,4.97,17.96c2.26,5.94,5.01,11.66,7.9,17.31
					c5.66,11.04,11.04,22.17,15.56,33.73c4.52,11.55,8.34,23.41,11.39,35.43c3.04,12.01,5.28,24.2,6.63,36.51
					c0.17,1.54,0.32,3.09,0.47,4.63c0.07,0.78,0.61,1.44,1.44,1.44C626.37,250.02,627.14,249.36,627.08,248.58L627.08,248.58z"/>
			</g>
		</g>
		<g>
			<g>
				<path class="st0" d="M842.61,248.41c2.08-12.36,4.37-24.7,7.02-36.96c2.65-12.25,5.56-24.46,9.31-36.43
					c3.53-11.27,7.83-22.28,12.06-33.3c4.2-10.95,8.6-21.85,12.25-33c3.59-10.98,6.57-22.21,7.99-33.69
					c0.18-1.47,0.37-2.93,0.53-4.4c0.05-0.51-0.82-0.63-0.9-0.12c-1.75,11.53-5.12,22.75-8.97,33.74
					c-3.87,11.05-8.39,21.85-12.94,32.63c-4.57,10.84-9.06,21.73-12.71,32.93c-3.86,11.86-6.78,23.95-9.13,36.19
					c-2.37,12.31-3.98,24.73-5.85,37.12c-0.24,1.57-0.48,3.15-0.71,4.72C840.35,249.18,842.38,249.77,842.61,248.41L842.61,248.41z"
					/>
			</g>
		</g>
		<g>
			<g>
				<path class="st0" d="M1011.07,303.32c4.85-7.69,10.01-15.21,15.15-22.71c5.15-7.51,10.51-14.85,15.89-22.19
					c10.73-14.62,21.75-29.03,33.05-43.22c11.35-14.25,22.97-28.28,34.52-42.37c12.01-14.65,23.91-29.39,35.84-44.1
					c6.15-7.58,12.25-15.22,18.48-22.74c3.11-3.76,6.23-7.51,9.34-11.27c3.12-3.76,6.14-7.6,9.25-11.35c1.53-1.85,3.07-3.7,4.6-5.54
					c0.28-0.33-0.2-0.82-0.48-0.48c-12.69,14.88-25.52,29.65-38.36,44.39c-12.55,14.41-25.24,28.7-37.67,43.22
					c-11.84,13.83-23.51,27.8-34.91,41.99c-11.47,14.29-22.68,28.78-33.36,43.66c-5.34,7.43-10.43,15.03-15.46,22.67
					c-4.99,7.58-9.92,15.22-14.43,23.11c-1.11,1.94-2.23,3.88-3.36,5.81C1008.41,303.44,1010.3,304.53,1011.07,303.32
					L1011.07,303.32z"/>
			</g>
		</g>
		<g>
			<g>
				<path class="st0" d="M740.2,97.16c-0.03-5.33-0.09-10.66-0.16-15.98c-0.04-2.66-0.03-5.34-0.21-7.99
					c-0.18-2.67-0.43-5.33-0.63-7.99c-0.05-0.72-1.1-0.73-1.12,0c-0.09,2.66-0.26,5.32-0.32,7.99c-0.06,2.66,0.04,5.33,0.1,7.99
					c0.13,5.33,0.28,10.66,0.45,15.98C738.34,98.38,740.21,98.39,740.2,97.16L740.2,97.16z"/>
			</g>
		</g>
		<g>
			<g>
				<path class="st0" d="M901.1,247.69c1.46-8.19,4.05-16.1,6.73-23.96c3.19-9.35,6.81-18.54,10.21-27.81
					c3.58-9.79,7.29-19.55,10.52-29.46c3.05-9.36,5.74-18.84,7.75-28.48c0.9-4.32,1.74-8.71,2.23-13.09
					c0.44-3.97,0.57-7.91,0.49-11.89c-0.02-0.89-0.07-1.79-0.11-2.68c-0.03-0.66-1.06-0.66-1.03,0c0.16,3.83-0.34,7.68-0.89,11.46
					c-0.62,4.23-1.41,8.44-2.43,12.6c-2.31,9.45-5.39,18.69-8.52,27.89c-3.33,9.8-6.8,19.55-10.33,29.28
					c-3.39,9.35-6.64,18.75-9.62,28.24c-2.55,8.12-4.83,16.35-6.47,24.71c-0.17,0.88-0.33,1.76-0.48,2.65
					C898.92,248.42,900.87,248.98,901.1,247.69L901.1,247.69z"/>
			</g>
		</g>
		<g>
			<g>
				<path class="st0" d="M938.38,110.29c-0.48,0.48-0.97,0.97-1.45,1.45c-0.03,0.03,0.02,0.08,0.05,0.05
					c0.48-0.48,0.97-0.97,1.45-1.45C938.46,110.31,938.41,110.26,938.38,110.29L938.38,110.29z"/>
			</g>
		</g>
		<g>
			<g>
				<path class="st0" d="M1050.55,320.61c8.7-13.66,21.54-23.69,34.44-33.13c12.93-9.46,26.17-18.93,36.02-31.76
					c11.12-14.48,17.14-32.47,30.98-44.87c3.58-3.2,7.43-6.09,11.31-8.92c1.11-0.81,2.23-1.61,3.29-2.5
					c1.73-1.44,3.39-2.97,5.03-4.51c5.59-5.2,11.04-10.55,16.48-15.91c7.47-7.36,14.88-14.76,22.29-22.18
					c8.28-8.29,16.51-16.64,24.81-24.92c8.07-8.05,16.14-16.09,24.26-24.09c6.68-6.58,13.37-13.15,20.14-19.63
					c4.18-4,8.35-8.07,12.8-11.78c0.55-0.46,1.01-0.84,1.54-1.22c0.63-0.45,0.02-1.51-0.62-1.05c-3.78,2.71-7.15,6.11-10.55,9.28
					c-6.33,5.91-12.57,11.91-18.8,17.93c-7.95,7.68-15.86,15.4-23.78,23.11c-8.48,8.24-16.99,16.45-25.5,24.67
					c-7.89,7.63-15.79,15.24-23.73,22.82c-6.15,5.87-12.31,11.73-18.57,17.48c-2.07,1.9-4.15,3.79-6.28,5.62
					c-0.73,0.63-1.46,1.25-2.21,1.85c-0.14,0.12-0.29,0.23-0.44,0.34c-0.18,0.14,0.43-0.32,0.12-0.1c-0.08,0.06-0.16,0.12-0.23,0.18
					c-1.11,0.81-2.25,1.58-3.37,2.38c-3.95,2.8-7.84,5.7-11.41,8.98c-3.43,3.15-6.45,6.65-9.19,10.41
					c-5.38,7.4-9.56,15.57-14.16,23.46c-4.32,7.4-9.15,14.34-15.12,20.51c-5.56,5.75-11.76,10.81-18.1,15.67
					c-12.71,9.74-26.2,18.85-36.61,31.18c-2.53,3-4.86,6.16-6.94,9.48C1047.63,320.72,1049.72,321.92,1050.55,320.61L1050.55,320.61
					z"/>
			</g>
		</g>
		<g>
			<g>
				<g>
					<path class="st0" d="M980.62,279.5c4.25-12.87,10.67-24.9,17.83-36.36c7.2-11.53,15.12-22.6,22.65-33.91
						c7.48-11.24,14.72-22.7,20.51-34.91c3.04-6.4,5.64-12.99,7.79-19.74c1.18-3.71,2.36-7.43,3.93-11
						c1.34-3.04,2.97-5.94,4.83-8.69c3.66-5.44,8.03-10.35,12.19-15.4c4.08-4.95,8.21-10.11,10.89-15.98
						c0.66-1.44,1.3-2.88,1.84-4.37c0.28-0.76-0.9-1.05-1.2-0.33c-5.12,12.19-15.43,21.06-23.46,31.23
						c-2.04,2.58-3.97,5.26-5.67,8.09c-1.91,3.19-3.42,6.58-4.74,10.05c-2.6,6.81-4.7,13.77-7.66,20.45
						c-5.47,12.36-12.52,23.94-19.93,35.21c-7.44,11.32-15.25,22.4-22.24,34c-6.97,11.56-13.27,23.61-17.64,36.41
						c-0.54,1.59-1.07,3.19-1.56,4.8C978.67,280.1,980.28,280.53,980.62,279.5L980.62,279.5z"/>
				</g>
			</g>
			<g>
				<g>
					<path class="st0" d="M1095.86,86.45c3.13-2.99,6.17-6.05,9.08-9.26c2.92-3.22,5.53-6.74,8.12-10.22
						c0.65-0.88-0.83-2.03-1.53-1.18c-2.73,3.32-5.66,6.45-8.49,9.67c-2.82,3.22-5.73,6.38-8.74,9.43
						C1093.31,85.9,1094.84,87.43,1095.86,86.45L1095.86,86.45z"/>
				</g>
			</g>
		</g>
		<g>
			<g>
				<path class="st0" d="M627.95,57.07c3.49,6.94,5.96,14.33,8.22,21.75c2.34,7.68,4.76,15.33,7.18,22.99
					c2.49,7.88,5.25,15.67,7.92,23.48c2.56,7.49,4.85,15.05,6.76,22.73c1.08,4.32,1.98,8.69,2.7,13.09c0.18,1.1,0.35,2.2,0.5,3.3
					c0.15,1.1,0.23,2.22,0.46,3.3c0.46,2.17,0.76,4.38,1.04,6.59c0.1,0.83,1.32,0.89,1.34,0c0.03-1.98,0-3.97-0.07-5.95
					c-0.07-2.02-0.35-4-0.65-5.99c-0.6-3.97-1.38-7.91-2.28-11.83c-1.79-7.79-4.09-15.43-6.24-23.12
					c-2.22-7.95-4.53-15.87-6.84-23.79c-2.29-7.83-4.81-15.61-7.35-23.36c-2.47-7.53-5.46-14.89-8.89-22.03
					c-0.42-0.88-0.86-1.75-1.31-2.62c-0.36-0.69-1.33-0.9-1.97-0.52C627.76,55.51,627.6,56.37,627.95,57.07L627.95,57.07z"/>
			</g>
		</g>
		<g>
			<g>
				<path class="st0" d="M670.11,204.45c-0.89-1.72-1.96-3.41-2.43-5.3c-0.29-1.15-2.13-0.93-2.09,0.28
					c0.04,1.23,0.52,2.49,0.83,3.68c0.31,1.21,0.63,2.41,0.97,3.61c0.68,2.44,1.36,4.88,2.03,7.32c1.35,4.84,2.68,9.69,4.2,14.47
					c0.55,1.73,3.2,1.02,2.73-0.75c-1.28-4.86-2.74-9.67-4.2-14.48c-0.72-2.38-1.44-4.77-2.17-7.15c-0.36-1.19-0.73-2.38-1.12-3.57
					c-0.39-1.2-0.66-2.58-1.3-3.67c-0.56,0.43-1.11,0.86-1.67,1.29c1.3,1.42,2.12,3.26,3.06,4.94
					C669.38,205.88,670.51,205.21,670.11,204.45L670.11,204.45z"/>
			</g>
		</g>
		<g>
			<g>
				<path class="st0" d="M483.66,81.08c8.15,10.16,13.87,21.97,18.82,33.95c2.53,6.12,4.8,12.33,7.18,18.51
					c2.42,6.27,4.76,12.61,7.6,18.71c2.78,5.96,5.79,11.82,9.27,17.42c1.76,2.84,3.62,5.61,5.59,8.31c2.08,2.84,4.23,5.64,6.18,8.57
					c1.92,2.89,3.62,5.98,4.73,9.27c1.21,3.6,1.55,7.37,1.74,11.14c0.19,3.78,0.27,7.57,0.9,11.31c0.53,3.12,1.55,6.09,2.95,8.92
					c5.25,10.55,14.95,18.18,19.88,28.93c0.6,1.32,1.1,2.69,1.49,4.08c0.2,0.7,1.23,0.41,1.08-0.3
					c-2.46-11.92-12.25-19.89-18.53-29.75c-1.55-2.44-2.91-5.02-3.84-7.77c-1.17-3.48-1.56-7.13-1.75-10.78
					c-0.21-3.84-0.25-7.69-0.84-11.5c-0.55-3.59-1.68-7-3.28-10.25c-3.07-6.24-7.39-11.74-10.96-17.68
					c-3.42-5.69-6.3-11.7-8.91-17.79c-5.23-12.19-9.83-24.71-15.01-36.98c-5.15-12.18-11.11-24.04-19.3-34.49
					c-1-1.27-2.03-2.51-3.09-3.73c-0.48-0.55-1.41-0.48-1.91,0C483.09,79.73,483.21,80.52,483.66,81.08L483.66,81.08z"/>
			</g>
		</g>
		<g>
			<g>
				<path class="st0" d="M288.68,72.98c2.56,1.17,4.57,3.03,6.62,4.94c1.44,1.34,2.8,2.78,4.14,4.22c1.56,1.68,3.02,3.56,4.45,5.21
					c3.45,4,6.78,8.11,10.06,12.25c3.59,4.52,6.93,8.88,10.42,13.53c3.48,4.63,6.9,9.31,10.32,13.99c3.12,4.27,6.21,8.57,9.28,12.88
					c2.46,3.47,4.91,6.95,7.35,10.43c1.93,2.75,3.84,5.5,5.74,8.27c5.35,7.82,10.54,15.74,15.57,23.78
					c5.05,8.07,9.88,16.27,14.75,24.45c1.19,2,2.46,3.94,3.71,5.9c1.02,1.59,3.32,0.21,2.51-1.47c-4.13-8.59-9.05-16.76-14.03-24.87
					c-5.01-8.15-10.19-16.19-15.53-24.12c-2.68-3.97-5.4-7.91-8.15-11.83c-2.29-3.26-4.6-6.51-6.93-9.75
					c-2.99-4.15-6-8.28-9.03-12.39c-3.41-4.61-6.86-9.19-10.37-13.73c-3.63-4.7-7.31-9.38-11.06-13.99
					c-3.43-4.22-6.91-8.4-10.55-12.45c-1.63-1.81-3.32-3.51-5.05-5.23c-1.5-1.5-2.96-3.03-4.5-4.49c-2.33-2.21-4.74-4.48-7.5-6.16
					c-0.45-0.28-0.92-0.53-1.4-0.75C288.56,71.19,287.74,72.55,288.68,72.98L288.68,72.98z"/>
			</g>
		</g>
		<g>
			<g>
				<path class="st0" d="M403.8,231.03c2.82,3.91,5.65,7.82,8.47,11.73c2.82,3.91,5.52,7.9,8.33,11.81c1.6,2.23,3.34,4.38,5.02,6.56
					c0.45,0.59,1.19,0.91,1.89,0.5c0.61-0.36,0.92-1.27,0.5-1.89c-2.73-3.98-5.44-7.96-8.37-11.79c-2.93-3.84-5.8-7.72-8.65-11.63
					c-1.62-2.22-3.24-4.43-4.86-6.65c-0.43-0.59-1.17-0.88-1.84-0.48C403.7,229.52,403.37,230.43,403.8,231.03L403.8,231.03z"/>
			</g>
		</g>
		<g>
			<g>
				<path class="st0" d="M791.91,242.45c0.57-4.66,1.34-9.28,2.1-13.91c0.38-2.3,0.76-4.6,1.15-6.9c0.18-1.1,0.37-2.21,0.56-3.31
					c0.2-1.2,0.58-2.34,0.78-3.54c1.58-9.25,2.65-18.58,3.89-27.89c0.6-4.5,1.23-8.99,1.76-13.66c0.52-4.64,1.05-9.29,1.59-13.93
					c0.53-4.55,1.06-9.09,1.61-13.64c0.28-2.32,0.55-4.64,0.84-6.96c0.29-2.31,0.35-4.64,0.65-6.95c0.65-5.13,1.28-10.27,1.99-15.4
					c0.36-2.61,0.72-5.21,1.08-7.82c0.35-2.53,0.55-5.09,0.84-7.62c0.01-0.12-0.18-0.14-0.21-0.03c-0.47,2.29-0.96,4.57-1.45,6.85
					c-0.5,2.28-0.83,4.61-1.23,6.91c-0.81,4.6-1.65,9.2-2.46,13.81c-0.41,2.3-0.8,4.6-1.33,6.88c-0.5,2.19-0.86,4.39-1.25,6.6
					c-0.81,4.6-1.6,9.21-2.38,13.82c-1.56,9.25-3.12,18.5-4.36,27.8c-1.23,9.19-2.56,18.38-3.4,27.61c-0.12,1.3-0.23,2.61-0.3,3.91
					c-0.04,0.65,0.04,1.3,0.02,1.95c-0.02,0.65-0.1,1.3-0.14,1.95c-0.2,2.61-0.4,5.21-0.59,7.82c-0.39,5.22-0.73,10.44-1.28,15.64
					C790.29,243.42,791.8,243.4,791.91,242.45L791.91,242.45z"/>
			</g>
		</g>
		<g>
			<g>
				<path class="st0" d="M81.23,427.49c18.73-2.07,36.17,7.86,52.34,15.88c6.79,3.36,13.65,6.52,20.74,9.18
					c5.76,2.16,11.59,4.09,17.45,5.95c14.15,4.49,28.38,8.78,42.66,12.83c14.95,4.24,29.96,8.19,44.99,12.16
					c6.73,1.78,13.41,3.73,20.1,5.67c5.63,1.63,11.25,3.29,16.76,5.28c1.17,0.42,2.35,0.84,3.5,1.3c1.02,0.41,1.47-1.25,0.45-1.65
					c-11.51-4.55-23.17-8.6-34.98-12.3c-7.18-2.24-14.33-4.57-21.53-6.78c-7.57-2.32-15.23-4.41-22.86-6.54
					c-14.58-4.06-29.25-7.91-43.71-12.41c-12.44-3.87-24.83-7.96-36.62-13.55c-16.61-7.87-33.52-18.06-52.48-18.08
					c-2.29,0-4.57,0.1-6.85,0.38C79.56,425.03,79.51,427.68,81.23,427.49L81.23,427.49z"/>
			</g>
		</g>
		<g>
			<g>
				<path class="st0" d="M66.31,620.62c6.31-0.93,12.61-1.87,18.9-2.95c4.25-0.73,8.51-1.48,12.8-1.95
					c11.51-1.26,23.27-0.51,34.78,0.44c16.14,1.34,32.15,3.88,48.3,5.07c15.62,1.15,31.24,0.52,46.75-1.57
					c15.35-2.07,30.62-5.38,45.23-10.55c1.83-0.65,3.64-1.32,5.43-2.06c0.85-0.35,0.55-1.69-0.39-1.42
					c-7.5,2.09-14.99,4.25-22.59,5.97c-7.52,1.71-15.13,3.1-22.79,4.06c-15.38,1.93-30.97,2.35-46.45,1.53
					c-16.16-0.86-32.19-3.14-48.31-4.41c-12.33-0.98-24.96-1.72-37.3-0.35c-9.87,1.1-19.6,3.5-29.34,5.37
					c-1.84,0.35-3.69,0.66-5.54,0.96C64.55,618.95,65.09,620.8,66.31,620.62L66.31,620.62z"/>
			</g>
		</g>
		<g>
			<g>
				<path class="st0" d="M52.17,852.77c9.14-13.78,23.5-23.05,38.67-29.04c17.68-6.97,36.67-9.75,55.27-13.1
					c18.89-3.4,37.32-8.76,55.44-15.05c18.02-6.26,35.91-13.48,52.98-22.01c17.15-8.58,34.33-17.1,51.5-25.64
					c2.1-1.04,4.2-2.09,6.3-3.13c0.73-0.37,0.09-1.44-0.64-1.09c-17.49,8.24-35.01,16.44-52.89,23.8
					c-17.76,7.32-35.62,14.47-53.66,21.07c-18.05,6.6-36.47,12.16-55.13,16.72c-18.76,4.58-38.05,7.79-56.13,14.78
					c-14.99,5.8-29.33,14.48-39.35,27.28c-1.21,1.54-2.34,3.14-3.41,4.79C50.69,852.82,51.74,853.42,52.17,852.77L52.17,852.77z"/>
			</g>
		</g>
		<g>
			<g>
				<path class="st0" d="M1119.82,763.6c3.23,0.44,6.34,1.21,9.5,1.97c3.22,0.78,6.4,1.71,9.56,2.72
					c6.48,2.07,12.82,4.52,19.26,6.72c6.25,2.13,12.55,4.08,19.05,5.3c6.51,1.22,13.04,2.4,19.54,3.66
					c11.77,2.29,23.53,4.63,35.19,7.45c11.11,2.69,22.12,5.8,33.02,9.25c11.95,3.78,23.81,7.91,35.59,12.23
					c1.58,0.58,3.16,1.16,4.74,1.75c1.34,0.5,1.87-1.6,0.59-2.12c-11.88-4.8-23.82-9.41-35.94-13.55
					c-10.91-3.73-21.94-7.1-33.06-10.17c-11.4-3.15-22.91-6.02-34.5-8.39c-6.37-1.3-12.76-2.52-19.16-3.66
					c-3.27-0.58-6.55-1.12-9.79-1.87c-3.27-0.76-6.52-1.64-9.74-2.56c-6.46-1.86-12.87-3.93-19.32-5.81
					c-3.21-0.94-6.43-1.82-9.68-2.59c-1.63-0.38-3.27-0.74-4.92-1.06c-1.58-0.3-3.16-0.44-4.76-0.64c-1.62-0.21-3.25-0.37-4.88-0.49
					C1119.02,761.67,1118.76,763.46,1119.82,763.6L1119.82,763.6z"/>
			</g>
		</g>
		<g>
			<g>
				<path class="st0" d="M1112.32,615.71c3.5,0.2,6.97,0.58,10.46,0.87c3.07,0.25,6.15,0.4,9.23,0.54
					c5.22,0.25,10.44,0.39,15.67,0.28c9.52-0.2,18.91-1.37,28.23-3.33c12.21-2.57,24.2-6.22,36.03-10.14
					c13.84-4.59,27.59-9.43,41.53-13.72c13.88-4.28,28.03-7.64,42.3-10.32c1.76-0.33,3.52-0.64,5.29-0.94
					c0.32-0.05,0.25-0.62-0.08-0.58c-14.27,1.79-28.33,5.03-42.22,8.71c-14.07,3.73-28.09,7.67-42.1,11.6
					c-6.94,1.95-13.9,3.82-20.84,5.75c-5.64,1.57-11.27,3.16-16.97,4.51c-9.35,2.22-18.3,3.8-27.75,4.5
					c-5,0.37-10.03,0.52-15.04,0.58c-6.13,0.08-12.27-0.18-18.4,0c-1.77,0.05-3.54-0.03-5.31-0.1
					C1111.17,613.88,1111.18,615.64,1112.32,615.71L1112.32,615.71z"/>
			</g>
		</g>
		<g>
			<g>
				<path class="st0" d="M1109.22,492.67c7.99-5.73,16.59-10.67,25.18-15.44c4.33-2.4,8.76-4.62,13.19-6.83
					c5-2.49,9.98-5.03,14.99-7.5c12.96-6.37,25.96-12.67,38.83-19.21c8.66-4.4,17.31-8.82,25.85-13.45
					c8.91-4.83,17.72-9.86,26.77-14.43c7.74-3.91,15.65-7.63,23.08-12.11c7.13-4.29,13.63-9.53,18.55-16.28
					c1.21-1.66,2.29-3.4,3.25-5.22c0.2-0.37-0.36-0.7-0.57-0.33c-4.14,7.48-10.53,13.24-17.7,17.75
					c-7.26,4.57-15.13,8.19-23.1,11.34c-9.04,3.57-17.69,7.93-26.38,12.25c-9,4.48-17.99,8.98-26.97,13.5
					c-13.45,6.78-26.95,13.46-40.36,20.31c-9.58,4.9-19.11,9.86-28.33,15.42c-4.13,2.49-8.26,5-12.23,7.75
					c-1.98,1.37-3.97,2.75-5.93,4.16c-2.02,1.47-3.96,3.06-5.98,4.54c-1.02,0.75-2.04,1.5-3.05,2.26
					C1107.44,491.82,1108.29,493.33,1109.22,492.67L1109.22,492.67z"/>
			</g>
		</g>
		<g>
			<g>
				<path class="st0" d="M1102.77,424.61c3.83-2.99,7.73-5.86,11.56-8.84c3.79-2.94,7.46-6.04,11.12-9.14
					c2.09-1.77,4.12-3.61,6.13-5.48c0.55-0.51,0.57-1.43,0.12-2c-0.43-0.54-1.35-0.85-1.97-0.39c-3.92,2.94-7.78,5.96-11.57,9.07
					c-3.77,3.09-7.59,6.13-11.26,9.34c-2.07,1.81-4.17,3.55-6.31,5.28c-0.65,0.52-0.54,1.63,0,2.17
					C1101.24,425.26,1102.11,425.13,1102.77,424.61L1102.77,424.61z"/>
			</g>
		</g>
		<g>
			<g>
				<path class="st0" d="M1146.78,386.18c5.03-2.87,10.19-5.5,15.25-8.31c5.06-2.81,10.12-5.62,15.11-8.56
					c9.95-5.86,19.85-11.79,29.7-17.81c9.6-5.86,19.24-11.68,28.56-17.98c8.86-5.99,17.1-12.79,25.15-19.82
					c7.97-6.95,15.86-13.94,23.29-21.48c0.93-0.95,1.85-1.91,2.76-2.87c0.26-0.27-0.14-0.67-0.41-0.41
					c-7.82,7.15-15.81,14.11-24.13,20.68c-8.27,6.54-17.21,12.15-25.91,18.09c-9.19,6.27-18.66,12.13-28.28,17.72
					c-9.91,5.77-19.84,11.5-29.68,17.4c-4.96,2.98-9.91,5.98-14.8,9.09c-4.85,3.08-9.71,6.16-14.48,9.36
					c-1.2,0.81-2.44,1.55-3.68,2.31C1143.63,384.61,1145.1,387.14,1146.78,386.18L1146.78,386.18z"/>
			</g>
		</g>
		<g>
			<g>
				<path class="st0" d="M1101.46,561.29c9.71,1.99,19.75,2.72,29.63,1.75c4.86-0.48,9.66-1.4,14.46-2.27
					c2.36-0.43,4.73-0.85,7.1-1.24c1.17-0.19,2.35-0.37,3.53-0.55c0.26-0.04,0.53-0.08,0.79-0.12c0.08-0.01,0.56-0.08,0.22-0.03
					c-0.48,0.07,0.64-0.09,0.57-0.08c0.14-0.02,1.01-0.14,0.44-0.06c0.3-0.04,0.6-0.08,0.9-0.11c0.82-0.1,1.64-0.2,2.46-0.32
					c0.15-0.02,0.29-0.04,0.44-0.06c0.22-0.03,0.26-0.03,0.01,0c0.33-0.04,0.67-0.08,1-0.12c1.29-0.13,2.58-0.14,3.87-0.1
					c2.56,0.1,4.95,0.25,7.41,0.93c0.69,0.19,1.45-0.18,1.71-0.84c0.25-0.62,0.07-1.51-0.59-1.81c-2.12-0.98-4.37-1.82-6.66-2.28
					c-2.34-0.47-4.8-0.58-7.19-0.62c-2.49-0.05-4.98,0.35-7.42,0.8c-2.33,0.43-4.66,1.04-6.93,1.72c-4.6,1.38-9.23,2.68-13.95,3.55
					c-4.83,0.88-9.7,1.38-14.62,1.45c-5.6,0.08-11.17-0.35-16.68-1.39C1100.78,559.26,1100.27,561.05,1101.46,561.29L1101.46,561.29
					z"/>
			</g>
		</g>
		<g>
			<g>
				<path class="st0" d="M1191.71,549.54c6.67-2.09,13.38-4.03,20.04-6.12c6.67-2.1,13.31-4.28,19.96-6.43
					c6.65-2.16,13.3-4.32,19.92-6.55c6.63-2.23,13.23-4.57,19.84-6.87c3.74-1.3,7.45-2.7,11.19-3.99c1.84-0.63,3.74-1.21,5.51-2.02
					c1.82-0.83,3.77-1.41,5.65-2.07c0.8-0.28,0.48-1.54-0.36-1.29c-1.67,0.5-3.33,1.07-5.02,1.5c-0.85,0.22-1.7,0.38-2.55,0.62
					c-0.84,0.24-1.68,0.47-2.52,0.73c-3.34,1.02-6.68,2.03-10.04,2.98c-6.72,1.89-13.4,3.98-20.07,6.04
					c-6.68,2.06-13.32,4.22-19.97,6.39c-6.65,2.17-13.31,4.28-19.94,6.51c-7.5,2.52-14.95,5.19-22.45,7.72
					c-0.76,0.26-1.26,1.02-1.04,1.83C1190.09,549.26,1190.94,549.78,1191.71,549.54L1191.71,549.54z"/>
			</g>
		</g>
		<g>
			<g>
				<path class="st0" d="M1114.28,682.31c6.17,0.85,12.25,2.21,18.38,3.26c5.37,0.92,10.74,1.86,16.12,2.75
					c12.44,2.06,24.91,4.01,37.51,4.69c7.56,0.41,15.13-0.01,22.48-1.91c1.07-0.28,0.62-1.88-0.45-1.65
					c-6.52,1.4-13.26,1.22-19.88,0.63c-3.28-0.29-6.53-0.75-9.78-1.25c-3.32-0.52-6.64-1-9.96-1.51
					c-5.77-0.89-11.55-1.69-17.32-2.62c-5.34-0.86-10.68-1.76-16.03-2.55c-6.89-1.02-13.82-1.57-20.72-2.43
					C1113.16,679.52,1112.8,682.11,1114.28,682.31L1114.28,682.31z"/>
			</g>
		</g>
		<g>
			<g>
				<path class="st0" d="M1228.65,698.25c11.71,0.79,23.42,1.59,35.12,2.42c5.9,0.42,11.79,0.83,17.69,1.25
					c4.97,0.35,9.96,0.77,14.94,0.41c1.38-0.1,2.76-0.29,4.12-0.54c1.3-0.23,2.64-0.49,3.86-1c2.47-1.03,4.93-2.15,7.1-3.75
					c0.94-0.69,0.08-2.27-0.93-1.6c-1.91,1.26-4.01,2.29-6.27,2.71c-2.25,0.42-4.46,0.87-6.75,1.03c-4.86,0.33-9.71,0.07-14.57-0.22
					c-11.54-0.69-23.08-1.35-34.62-2.07c-6.56-0.41-13.12-0.83-19.68-1.24c-0.7-0.04-1.3,0.63-1.3,1.3
					C1227.35,697.7,1227.94,698.21,1228.65,698.25L1228.65,698.25z"/>
			</g>
		</g>
		<g>
			<g>
				<path class="st0" d="M1096.18,829.62c9.2,1.11,17.15,6.64,25.35,10.5c4.27,2.01,8.72,3.33,13.33,4.29
					c4.49,0.94,9.03,1.62,13.54,2.43c2.51,0.45,5.01,1,7.45,1.75c2.39,0.74,4.78,1.51,6.99,2.7c1.07,0.58,1.94-0.94,0.95-1.62
					c-1.86-1.27-3.79-2.5-5.86-3.38c-2.18-0.92-4.41-1.69-6.68-2.34c-4.47-1.28-9.05-2.04-13.61-2.92
					c-4.54-0.87-9.03-1.98-13.36-3.62c-4.37-1.65-8.64-3.54-12.94-5.35c-4.88-2.05-9.88-3.69-15.16-4.29
					c-0.5-0.06-0.92,0.47-0.93,0.93C1095.25,829.24,1095.69,829.56,1096.18,829.62L1096.18,829.62z"/>
			</g>
		</g>
		<g>
			<g>
				<path class="st0" d="M1197.88,865.93c7.01,1.6,13.55,4.29,19.96,7.48c6.49,3.23,12.72,6.93,18.94,10.65
					c6.25,3.75,12.41,7.67,18.77,11.23c6.39,3.56,12.96,6.82,19.78,9.48c3.31,1.29,6.66,2.48,10.08,3.46
					c3.42,0.98,6.98,1.6,10.51,2.09c0.91,0.13,1.82,0.24,2.74,0.34c1.29,0.14,1.6-2.09,0.31-2.28c-3.55-0.51-7.02-1.29-10.44-2.4
					c-3.25-1.06-6.78-2.16-9.75-3.44c-6.57-2.83-12.87-6.3-19.01-9.95c-6.26-3.72-12.49-7.5-18.77-11.2
					c-6.26-3.69-12.63-7.19-19.25-10.19c-6.65-3.01-13.53-5.37-20.62-7.09c-0.85-0.21-1.71-0.4-2.57-0.58
					C1196.98,863.21,1196.31,865.57,1197.88,865.93L1197.88,865.93z"/>
			</g>
		</g>
		<g>
			<g>
				<path class="st0" d="M52.3,922.17c12.4-11.27,27.62-19.06,43.18-25.02c16.07-6.16,32.72-10.6,49.28-15.21
					c16.95-4.72,33.74-9.75,49.84-16.94c17.92-8.01,34.75-18.5,53.79-23.79c17.15-4.77,35.92-4.76,51.9-13.29
					c1.9-1.02,3.71-2.2,5.44-3.49c0.64-0.47,0.05-1.55-0.64-1.09c-15.34,10.1-34.34,10.23-51.78,13.82
					c-19.23,3.95-37.13,12.87-54.8,21.12c-8.23,3.84-16.54,7.37-25.11,10.39c-8.16,2.88-16.41,5.52-24.69,8.02
					c-16.57,5.01-33.32,9.57-49.47,15.85c-15.64,6.09-30.37,13.8-43.34,24.52c-1.59,1.31-3.13,2.67-4.64,4.07
					C50.55,921.77,51.6,922.8,52.3,922.17L52.3,922.17z"/>
			</g>
		</g>
		<g>
			<g>
				<path class="st0" d="M68.14,732.65c5.46-3.19,11.26-5.87,17.16-8.13c5.86-2.25,11.79-4.23,17.9-5.69
					c3.48-0.83,6.92-1.77,10.45-2.41c0.85-0.15,0.66-1.63-0.21-1.52c-3.18,0.4-6.37,0.88-9.52,1.49c-3.13,0.6-6.24,1.58-9.28,2.54
					c-6.11,1.93-12.01,4.36-17.71,7.27c-3.22,1.65-6.35,3.48-9.43,5.36C66.81,731.98,67.43,733.06,68.14,732.65L68.14,732.65z"/>
			</g>
		</g>
		<g>
			<g>
				<path class="st0" d="M136.75,709.8c3.91-2.4,8.33-3.49,12.83-4.16c4.68-0.7,9.44-0.84,14.16-1.08
					c10.79-0.55,21.57-1.2,32.36-1.83c10.84-0.64,21.68-1.24,32.51-1.95c5.4-0.36,10.79-0.72,16.18-1.14
					c5.2-0.41,10.42-0.76,15.56-1.62c4.87-0.82,9.56-2.29,13.92-4.62c4.23-2.26,8.21-4.98,12.28-7.51c0.99-0.62,1.99-1.22,3-1.81
					c1.06-0.62,0.11-2.24-0.96-1.64c-4.15,2.33-8.1,5.02-12.31,7.24c-4.32,2.29-8.81,4.12-13.62,5.04
					c-4.94,0.94-9.97,1.06-14.98,1.27c-5.4,0.23-10.79,0.48-16.18,0.77c-10.84,0.59-21.68,1.27-32.51,1.93
					c-10.84,0.66-21.68,1.29-32.51,2.04c-4.94,0.34-9.9,0.59-14.81,1.28c-2.28,0.32-4.54,0.74-6.76,1.34
					c-2.26,0.61-4.45,1.56-6.56,2.56c-1.01,0.48-1.99,1.02-2.94,1.62C133.97,708.42,135.29,710.7,136.75,709.8L136.75,709.8z"/>
			</g>
		</g>
		<g>
			<g>
				<path class="st0" d="M285.44,556.14c-2.77-1.53-5.74-2.69-8.71-3.74c-3.67-1.3-7.41-2.39-11.18-3.36
					c-8.54-2.19-17.21-3.92-25.9-5.35c-7.91-1.3-15.84-2.42-23.79-3.46c-3.93-0.51-7.85-1.03-11.79-1.38
					c-5.97-0.53-11.96-0.75-17.95-1.05c-5.88-0.29-11.76-0.63-17.6-1.35c-5.83-0.71-11.55-1.9-17.18-3.59
					c-1.41-0.42-2.81-0.89-4.19-1.4c-0.6-0.22-1.3,0.25-1.46,0.83c-0.19,0.68,0.23,1.21,0.83,1.46c11.01,4.51,23.02,5.77,34.8,6.51
					c5.9,0.37,11.81,0.6,17.71,1c4.74,0.32,9.46,0.81,14.17,1.4c7.53,0.95,14.85,1.94,22.41,3.12c8.7,1.36,17.4,2.8,26,4.68
					c7.11,1.56,14.44,3.21,21.1,6.25c0.63,0.29,1.25,0.59,1.87,0.91C285.55,558.15,286.42,556.68,285.44,556.14L285.44,556.14z"/>
			</g>
		</g>
		<g>
			<g>
				<path class="st0" d="M117.87,514.02c-5.49-1.68-11.03-3.2-16.62-4.53c-5.59-1.34-11.24-2.63-16.95-3.37
					c-3.18-0.41-6.36-0.78-9.56-1.05c-0.85-0.07-1.05,1.33-0.2,1.5c5.57,1.07,11.11,2.26,16.66,3.39
					c5.58,1.13,11.13,2.44,16.63,3.92c3.13,0.84,6.24,1.74,9.33,2.69C118.8,517.07,119.5,514.52,117.87,514.02L117.87,514.02z"/>
			</g>
		</g>
		<g>
			<g>
				<path class="st0" d="M80.68,324.48c5.93,2.71,11.87,5.4,17.81,8.07c8.95,4.03,17.87,8.12,26.81,12.16
					c7.48,3.38,15,6.65,22.51,9.95c3.8,1.66,7.57,3.38,11.42,4.91c3.72,1.48,7.5,2.8,11.4,3.74c4.02,0.96,8.18,1.39,12.29,1.82
					c3.84,0.41,7.68,0.77,11.44,1.7c3.41,0.84,6.77,1.95,10,3.33c6.42,2.74,12.42,6.62,17.63,11.25c1.3,1.15,2.54,2.35,3.74,3.6
					c0.38,0.39,0.96-0.2,0.6-0.6c-9.56-10.45-22.23-17.27-35.98-20.41c-4.07-0.93-8.2-1.49-12.3-2.3c-3.94-0.77-7.76-1.96-11.5-3.4
					c-5.02-1.94-9.86-4.3-14.79-6.46c-7.14-3.13-14.31-6.17-21.5-9.18c-9.09-3.81-18.47-7.55-27.41-11.25
					c-2.11-0.87-4.22-1.75-6.32-2.63c-0.95-0.39-1.9-0.79-2.85-1.18c-0.99-0.41-1.79-0.75-2.66-1.09c-2.59-1.04-5.17-2.13-8-3.36
					c-0.42-0.18-0.83-0.36-1.25-0.54c-0.54-0.24-1.16-0.16-1.49,0.39C80.01,323.45,80.15,324.24,80.68,324.48L80.68,324.48z"/>
			</g>
		</g>
		<g>
			<g>
				<path class="st0" d="M321.65,431.83c-3.98-0.81-7.85-2.41-11.62-3.88c-5.85-2.28-11.43-4.74-17.26-7.36
					c-6.51-2.92-12.96-5.95-19.41-9.01c-5.9-2.8-11.8-5.64-17.74-8.36c-4.03-1.85-8.03-3.78-11.92-5.91c-0.3-0.16-0.6-0.33-0.89-0.5
					c-1.32-0.77-2.51,1.27-1.19,2.04c3.54,2.08,7.21,3.94,10.82,5.88c5.6,3.01,11.33,5.77,17.09,8.47
					c6.49,3.05,13.05,5.94,19.63,8.79c6.05,2.62,12.13,5.15,18.26,7.57c4.11,1.63,8.28,3.32,12.58,4.39c0.33,0.08,0.66,0.16,1,0.22
					c0.64,0.13,1.32-0.19,1.5-0.85C322.66,432.73,322.29,431.96,321.65,431.83L321.65,431.83z"/>
			</g>
		</g>
		<g>
			<g>
				<g>
					<path class="st0" d="M251.5,251.92c8.85,6.54,17.62,13.19,26.54,19.65c8.94,6.47,17.98,12.78,26.92,19.24
						c2.5,1.8,5,3.61,7.5,5.41c1.25,0.9,2.51,1.78,3.8,2.61c1.32,0.85,2.62,1.76,4.02,2.49c0.69,0.36,1.44-0.52,0.85-1.1
						c-1-0.99-2.12-1.85-3.2-2.73c-1.04-0.85-2.08-1.7-3.17-2.49c-2.25-1.65-4.5-3.3-6.76-4.95c-4.47-3.28-8.96-6.52-13.4-9.85
						c-8.81-6.6-17.67-13.11-26.6-19.54c-5.07-3.64-10.21-7.19-15.28-10.82c-0.53-0.38-1.34-0.09-1.65,0.43
						C250.71,250.89,250.97,251.53,251.5,251.92L251.5,251.92z"/>
				</g>
			</g>
			<g>
				<g>
					<path class="st0" d="M75.33,98.67c2.27,2.35,4.71,4.54,7.09,6.79c4.09,3.86,8.23,7.68,12.38,11.47
						c5.47,5,11.06,9.89,16.46,14.97c6.31,5.93,12.68,11.8,19.14,17.55c6.91,6.15,13.83,12.28,20.78,18.38
						c7.04,6.19,14.18,12.28,21.3,18.39c6.71,5.76,13.56,11.38,20.34,17.07c5.95,4.99,11.89,9.99,17.87,14.95
						c4.71,3.91,9.45,7.81,14.21,11.66c0.93,0.75,1.86,1.5,2.79,2.25c0.42,0.34,0.84,0.67,1.26,1.01c0.2,0.16,0.41,0.33,0.61,0.49
						c0.09,0.07,0.18,0.14,0.27,0.21c0.15,0.12,0.83,0.66,0.32,0.25c1.37,1.09,2.75,2.16,4.15,3.2c0.43,0.33,0.87,0.64,1.31,0.96
						c0.68,0.5,1.74,0.12,2.13-0.56c0.46-0.79,0.12-1.64-0.56-2.13c-0.11-0.08-0.35-0.26,0.14,0.11c-0.15-0.11-0.29-0.23-0.44-0.34
						c-0.11-0.08-0.22-0.17-0.33-0.25c-0.28-0.21,0.35,0.28-0.05-0.04c-0.13-0.1-0.26-0.21-0.4-0.31c-0.58-0.46-1.16-0.92-1.73-1.38
						c-1.54-1.24-3.06-2.5-4.58-3.76c-4.32-3.59-8.6-7.23-12.88-10.88c-5.65-4.82-11.3-9.63-16.91-14.49
						c-6.53-5.65-13.06-11.31-19.54-17.01c-6.95-6.11-13.98-12.12-20.98-18.17c-7.1-6.14-14.27-12.19-21.42-18.28
						c-6.72-5.72-13.5-11.38-20.26-17.06c-1.65-1.39-3.13-2.53-4.85-3.97c-1.52-1.27-3.02-2.57-4.53-3.86
						c-2.83-2.42-5.65-4.85-8.47-7.29c-4.61-3.98-9.22-7.98-13.8-12c-2.92-2.57-5.82-5.15-8.63-7.85c-0.39-0.38-0.78-0.76-1.16-1.14
						C75.7,96.95,74.67,97.99,75.33,98.67L75.33,98.67z"/>
				</g>
			</g>
		</g>
		<g>
			<g>
				<path class="st0" d="M49.36,1008.87c0.9-0.24,1.81-0.31,2.72-0.52c0.97-0.22,1.93-0.5,2.89-0.77c1.84-0.52,3.68-1.09,5.49-1.73
					c3.55-1.24,7.06-2.57,10.56-3.95c3.61-1.43,7.21-2.89,10.75-4.46c3.44-1.53,6.81-3.22,10.15-4.97c3.82-2.01,7.5-4.21,11.15-6.5
					c1.45-0.91,0.16-3.13-1.34-2.29c-6.65,3.7-13.44,7.14-20.22,10.58c-6.7,3.39-13.51,6.51-20.5,9.26
					c-1.93,0.76-3.87,1.49-5.79,2.3c-0.98,0.41-1.98,0.78-2.96,1.2c-1.03,0.44-1.97,1.02-3.02,1.41
					C48.96,1008.52,49.07,1008.94,49.36,1008.87L49.36,1008.87z"/>
			</g>
		</g>
		<g>
			<g>
				<path class="st0" d="M1228.81,236.29c4.46-3.06,8.73-6.36,12.83-9.89c4.07-3.5,8.13-7.01,12.03-10.7
					c1.97-1.86,3.78-3.94,5.61-5.94c1.84-2.01,3.66-4.04,5.46-6.09c3.69-4.19,7.32-8.41,10.86-12.72c2.17-2.64,4.29-5.32,6.42-7.98
					c2.15-2.68,4.02-5.56,6.16-8.24c0.41-0.51-0.27-1.23-0.73-0.73c-0.51,0.55-1.01,1.1-1.52,1.64c-0.51,0.54-1.11,1-1.64,1.52
					c-1.07,1.04-2.15,2.06-3.17,3.15c-2.03,2.18-4.06,4.37-6.08,6.56c-3.87,4.18-7.58,8.48-11.31,12.78
					c-3.52,4.06-7.08,8.1-10.72,12.05c-1.85,2-3.61,4.09-5.42,6.12c-1.78,2-3.62,3.95-5.51,5.85c-4.24,4.28-8.88,8.26-13.68,11.9
					C1227.99,235.9,1228.37,236.6,1228.81,236.29L1228.81,236.29z"/>
			</g>
		</g>
	</g>
</g>
</svg>
